<svg width="20" height="20" viewBox="0 0 20 20" fill="none" xmlns="http://www.w3.org/2000/svg">
<path fill-rule="evenodd" clip-rule="evenodd" d="M10 3.33325C11.8383 3.33325 13.3333 4.82825 13.3333 6.66658C13.3333 8.50491 11.8383 9.99991 10 9.99991C8.16166 9.99991 6.66666 8.50491 6.66666 6.66658C6.66666 4.82825 8.16166 3.33325 10 3.33325M15.8075 17.2924L13.8833 9.80991C14.58 8.94991 15 7.85741 15 6.66658C15 3.90908 12.7575 1.66658 10 1.66658C7.2425 1.66658 5 3.90908 5 6.66658C5 7.85741 5.42 8.94991 6.11666 9.80991L4.1925 17.2924C4.10916 17.6191 4.22916 17.9632 4.49833 18.1657C4.7675 18.3682 5.13166 18.3866 5.42166 18.2182L9.86333 15.6107L14.5967 18.2291C14.7225 18.2991 14.8617 18.3332 15 18.3332C15.1808 18.3332 15.3608 18.2749 15.51 18.1591C15.7733 17.9557 15.89 17.6149 15.8075 17.2924" fill="#212A46"/>
<mask id="mask0_3289_3282" style="mask-type:luminance" maskUnits="userSpaceOnUse" x="4" y="1" width="12" height="18">
<path fill-rule="evenodd" clip-rule="evenodd" d="M10 3.33325C11.8383 3.33325 13.3333 4.82825 13.3333 6.66658C13.3333 8.50491 11.8383 9.99991 10 9.99991C8.16166 9.99991 6.66666 8.50491 6.66666 6.66658C6.66666 4.82825 8.16166 3.33325 10 3.33325M15.8075 17.2924L13.8833 9.80991C14.58 8.94991 15 7.85741 15 6.66658C15 3.90908 12.7575 1.66658 10 1.66658C7.2425 1.66658 5 3.90908 5 6.66658C5 7.85741 5.42 8.94991 6.11666 9.80991L4.1925 17.2924C4.10916 17.6191 4.22916 17.9632 4.49833 18.1657C4.7675 18.3682 5.13166 18.3866 5.42166 18.2182L9.86333 15.6107L14.5967 18.2291C14.7225 18.2991 14.8617 18.3332 15 18.3332C15.1808 18.3332 15.3608 18.2749 15.51 18.1591C15.7733 17.9557 15.89 17.6149 15.8075 17.2924" fill="white"/>
</mask>
<g mask="url(#mask0_3289_3282)">
</g>
</svg>
