<svg width="20" height="20" viewBox="0 0 20 20" fill="none" xmlns="http://www.w3.org/2000/svg">
<path fill-rule="evenodd" clip-rule="evenodd" d="M12.2538 6.99541L9.1005 11.1362L7.73966 9.39791C7.45633 9.03457 6.93133 8.97124 6.56966 9.25541C6.20716 9.53874 6.143 10.0629 6.42716 10.4246L8.453 13.0137C8.61133 13.2154 8.853 13.3329 9.10966 13.3329H9.1155C9.373 13.3321 9.61633 13.2104 9.77216 13.0046L13.5797 8.00457C13.8588 7.63791 13.788 7.11624 13.4213 6.83707C13.0538 6.55791 12.5322 6.62957 12.2538 6.99541M10 16.6667C6.32416 16.6667 3.33333 13.6758 3.33333 9.99999C3.33333 6.32416 6.32416 3.33332 10 3.33332C13.6758 3.33332 16.6667 6.32416 16.6667 9.99999C16.6667 13.6758 13.6758 16.6667 10 16.6667M10 1.66666C5.3975 1.66666 1.66666 5.39832 1.66666 9.99999C1.66666 14.6017 5.3975 18.3333 10 18.3333C14.6025 18.3333 18.3333 14.6017 18.3333 9.99999C18.3333 5.39832 14.6025 1.66666 10 1.66666" fill="#00D68F"/>
<mask id="mask0_3289_1916" style="mask-type:luminance" maskUnits="userSpaceOnUse" x="1" y="1" width="18" height="18">
<path fill-rule="evenodd" clip-rule="evenodd" d="M12.2538 6.99541L9.1005 11.1362L7.73966 9.39791C7.45633 9.03457 6.93133 8.97124 6.56966 9.25541C6.20716 9.53874 6.143 10.0629 6.42716 10.4246L8.453 13.0137C8.61133 13.2154 8.853 13.3329 9.10966 13.3329H9.1155C9.373 13.3321 9.61633 13.2104 9.77216 13.0046L13.5797 8.00457C13.8588 7.63791 13.788 7.11624 13.4213 6.83707C13.0538 6.55791 12.5322 6.62957 12.2538 6.99541M10 16.6667C6.32416 16.6667 3.33333 13.6758 3.33333 9.99999C3.33333 6.32416 6.32416 3.33332 10 3.33332C13.6758 3.33332 16.6667 6.32416 16.6667 9.99999C16.6667 13.6758 13.6758 16.6667 10 16.6667M10 1.66666C5.3975 1.66666 1.66666 5.39832 1.66666 9.99999C1.66666 14.6017 5.3975 18.3333 10 18.3333C14.6025 18.3333 18.3333 14.6017 18.3333 9.99999C18.3333 5.39832 14.6025 1.66666 10 1.66666" fill="white"/>
</mask>
<g mask="url(#mask0_3289_1916)">
<rect width="20" height="20" fill="#00D68F"/>
</g>
</svg>
