<svg width="15" height="15" viewBox="0 0 15 15" fill="none" xmlns="http://www.w3.org/2000/svg">
<path fill-rule="evenodd" clip-rule="evenodd" d="M4.16667 5.83333C4.85667 5.83333 5.41667 5.27333 5.41667 4.58333C5.41667 3.89333 4.85667 3.33333 4.16667 3.33333C3.47667 3.33333 2.91667 3.89333 2.91667 4.58333C2.91667 5.27333 3.47667 5.83333 4.16667 5.83333ZM12.5 13.3333H2.9675L8.805 8.4625C9.01 8.28833 9.38167 8.28917 9.5825 8.46167L13.3333 11.6617V12.5C13.3333 12.96 12.96 13.3333 12.5 13.3333ZM2.5 1.66667H12.5C12.96 1.66667 13.3333 2.04 13.3333 2.5V9.47L10.6642 7.19333C9.83917 6.49167 8.54833 6.49167 7.73083 7.18833L1.66667 12.2483V2.5C1.66667 2.04 2.04 1.66667 2.5 1.66667ZM12.5 0H2.5C1.12167 0 0 1.12167 0 2.5V12.5C0 13.8783 1.12167 15 2.5 15H12.5C13.8783 15 15 13.8783 15 12.5V2.5C15 1.12167 13.8783 0 12.5 0Z" fill="#0095FF"/>
<mask id="mask0_3289_1933" style="mask-type:luminance" maskUnits="userSpaceOnUse" x="0" y="0" width="15" height="15">
<path fill-rule="evenodd" clip-rule="evenodd" d="M4.16667 5.83333C4.85667 5.83333 5.41667 5.27333 5.41667 4.58333C5.41667 3.89333 4.85667 3.33333 4.16667 3.33333C3.47667 3.33333 2.91667 3.89333 2.91667 4.58333C2.91667 5.27333 3.47667 5.83333 4.16667 5.83333ZM12.5 13.3333H2.9675L8.805 8.4625C9.01 8.28833 9.38167 8.28917 9.5825 8.46167L13.3333 11.6617V12.5C13.3333 12.96 12.96 13.3333 12.5 13.3333ZM2.5 1.66667H12.5C12.96 1.66667 13.3333 2.04 13.3333 2.5V9.47L10.6642 7.19333C9.83917 6.49167 8.54833 6.49167 7.73083 7.18833L1.66667 12.2483V2.5C1.66667 2.04 2.04 1.66667 2.5 1.66667ZM12.5 0H2.5C1.12167 0 0 1.12167 0 2.5V12.5C0 13.8783 1.12167 15 2.5 15H12.5C13.8783 15 15 13.8783 15 12.5V2.5C15 1.12167 13.8783 0 12.5 0Z" fill="white"/>
</mask>
<g mask="url(#mask0_3289_1933)">
<rect x="-2.5" y="-2.5" width="20" height="20" fill="#0095FF"/>
</g>
</svg>
