<svg width="32" height="32" viewBox="0 0 32 32" fill="none" xmlns="http://www.w3.org/2000/svg">
<path d="M29.4929 10.8051C32.0006 16.0154 31.0954 22.4564 26.7751 26.7767C22.4455 31.1064 15.9856 32.0068 10.7693 29.4789C11.2727 29.6314 11.7871 29.7583 12.3113 29.8578C12.335 29.8623 12.3588 29.8671 12.3826 29.8715C12.7279 29.9353 13.0773 29.987 13.4304 30.0267C13.4382 30.0276 13.4461 30.0278 13.4539 30.0287C13.6327 30.0485 13.8123 30.066 13.9929 30.0795C14.0007 30.0801 14.0085 30.0808 14.0164 30.0814C14.1787 30.0933 14.3419 30.1011 14.5056 30.1078C14.5398 30.1092 14.5739 30.1105 14.6082 30.1117C14.7797 30.1175 14.9518 30.1224 15.1248 30.1224C23.409 30.1224 30.1248 23.4067 30.1248 15.1224C30.1248 14.9482 30.1199 14.7747 30.114 14.6019C30.113 14.5729 30.1122 14.544 30.1111 14.515C30.0599 13.2301 29.8476 11.987 29.4929 10.8051Z" fill="#0072C9"/>
<path d="M15.1248 1.12244C22.8567 1.12244 29.1248 7.39045 29.1248 15.1224C29.1248 22.8544 22.8567 29.1224 15.1248 29.1224C7.39277 29.1224 1.12476 22.8544 1.12476 15.1224C1.12476 7.39045 7.39277 1.12244 15.1248 1.12244Z" fill="#0072C9"/>
<path fill-rule="evenodd" clip-rule="evenodd" d="M15.1248 0.122437C19.5989 0.122437 23.6148 2.08196 26.363 5.18884C26.4852 5.29669 26.6063 5.40676 26.7253 5.5199L26.9695 5.75818L27.4822 6.27087L27.7527 6.54822C33.3384 12.4247 33.2483 21.7175 27.4822 27.4838L27.2058 27.7543C21.4225 33.2521 12.329 33.2519 6.54565 27.7543L6.26929 27.4838L5.75562 26.9711L5.51733 26.7269C5.39343 26.5966 5.27356 26.4635 5.15601 26.3295C2.06953 23.5821 0.124756 19.5797 0.124756 15.1224C0.124756 6.83817 6.84048 0.122437 15.1248 0.122437ZM29.4919 10.8041C29.9025 12.1718 30.1248 13.6211 30.1248 15.1224C30.1248 23.4067 23.409 30.1224 15.1248 30.1224C13.6099 30.1224 12.1478 29.8965 10.7693 29.4789C15.9856 32.0068 22.4455 31.1064 26.7751 26.7767C31.0957 22.4561 32.0003 16.0147 29.4919 10.8041ZM15.1248 1.12244C7.39277 1.12244 1.12476 7.39045 1.12476 15.1224C1.12476 22.8544 7.39277 29.1224 15.1248 29.1224C22.8567 29.1224 29.1248 22.8544 29.1248 15.1224C29.1248 7.39045 22.8567 1.12244 15.1248 1.12244Z" fill="#9CEBFF"/>
<path d="M8.42463 23.1224C7.70666 23.1224 7.12463 22.5404 7.12463 21.8224V19.7584C7.12463 19.0405 7.70666 18.4584 8.42463 18.4584H10.4886C11.2066 18.4584 11.7886 19.0405 11.7886 19.7584V21.8224C11.7886 22.5404 11.2066 23.1224 10.4886 23.1224H8.42463ZM14.0926 23.1224C13.3747 23.1224 12.7926 22.5404 12.7926 21.8224V19.7584C12.7926 19.0405 13.3747 18.4584 14.0926 18.4584H16.1566C16.8746 18.4584 17.4566 19.0405 17.4566 19.7584V21.8224C17.4566 22.5404 16.8746 23.1224 16.1566 23.1224H14.0926ZM19.7606 23.1224C19.0427 23.1224 18.4606 22.5404 18.4606 21.8224V19.7584C18.4606 19.0405 19.0427 18.4584 19.7606 18.4584H21.8246C22.5426 18.4584 23.1246 19.0405 23.1246 19.7584V21.8224C23.1246 22.5404 22.5426 23.1224 21.8246 23.1224H19.7606ZM8.42463 17.4544C7.70666 17.4544 7.12463 16.8724 7.12463 16.1544V14.0904C7.12463 13.3725 7.70666 12.7904 8.42463 12.7904H10.4886C11.2066 12.7904 11.7886 13.3725 11.7886 14.0904V16.1544C11.7886 16.8724 11.2066 17.4544 10.4886 17.4544H8.42463ZM14.0926 17.4544C13.3747 17.4544 12.7926 16.8724 12.7926 16.1544V14.0904C12.7926 13.3725 13.3747 12.7904 14.0926 12.7904H16.1566C16.8746 12.7904 17.4566 13.3725 17.4566 14.0904V16.1544C17.4566 16.8724 16.8746 17.4544 16.1566 17.4544H14.0926ZM19.7606 17.4544C19.0427 17.4544 18.4606 16.8724 18.4606 16.1544V14.0904C18.4606 13.3725 19.0427 12.7904 19.7606 12.7904H21.8246C22.5426 12.7904 23.1246 13.3725 23.1246 14.0904V16.1544C23.1246 16.8724 22.5426 17.4544 21.8246 17.4544H19.7606ZM8.42463 11.7864C7.70666 11.7864 7.12463 11.2044 7.12463 10.4864V8.42244C7.12463 7.70447 7.70666 7.12244 8.42463 7.12244H10.4886C11.2066 7.12244 11.7886 7.70447 11.7886 8.42244V10.4864C11.7886 11.2044 11.2066 11.7864 10.4886 11.7864H8.42463ZM14.0926 11.7864C13.3747 11.7864 12.7926 11.2044 12.7926 10.4864V8.42244C12.7926 7.70447 13.3747 7.12244 14.0926 7.12244H16.1566C16.8746 7.12244 17.4566 7.70447 17.4566 8.42244V10.4864C17.4566 11.2044 16.8746 11.7864 16.1566 11.7864H14.0926ZM19.7606 11.7864C19.0427 11.7864 18.4606 11.2044 18.4606 10.4864V8.42244C18.4606 7.70447 19.0427 7.12244 19.7606 7.12244H21.8246C22.5426 7.12244 23.1246 7.70447 23.1246 8.42244V10.4864C23.1246 11.2044 22.5426 11.7864 21.8246 11.7864H19.7606Z" fill="#9CEBFF"/>
</svg>
