<svg width="32" height="32" viewBox="0 0 32 32" fill="none" xmlns="http://www.w3.org/2000/svg">
<path d="M16 2C23.732 2 30 8.26801 30 16C30 23.732 23.732 30 16 30C8.26801 30 2 23.732 2 16C2 8.26801 8.26801 2 16 2Z" fill="#0072C9"/>
<path fill-rule="evenodd" clip-rule="evenodd" d="M23.2 8C23.695 8 24.1184 8.17442 24.4709 8.52257C24.8234 8.87072 25 9.28889 25 9.77778V18.6667C25 19.1556 24.8234 19.5737 24.4709 19.9219C24.1184 20.27 23.695 20.4444 23.2 20.4444H17.8V22.2222H19.6V24H12.4V22.2222H14.2V20.4444H8.8C8.305 20.4444 7.8816 20.27 7.5291 19.9219C7.1766 19.5737 7 19.1556 7 18.6667V9.77778C7 9.28889 7.1766 8.87072 7.5291 8.52257C7.8816 8.17442 8.305 8 8.8 8H23.2ZM12.2312 16.0755C11.8274 16.0755 11.5 16.3989 11.5 16.7977V17.9444C11.5 18.3433 11.8274 18.6667 12.2312 18.6667H13.3923C13.7961 18.6666 14.1235 18.3433 14.1235 17.9444V16.7977C14.1235 16.3989 13.7961 16.0755 13.3923 16.0755H12.2312ZM15.4199 16.0755C15.0161 16.0755 14.6887 16.3989 14.6887 16.7977V17.9444C14.6887 18.3433 15.0161 18.6667 15.4199 18.6667H16.5801C16.9839 18.6667 17.3113 18.3433 17.3113 17.9444V16.7977C17.3113 16.3989 16.9839 16.0755 16.5801 16.0755H15.4199ZM18.6077 16.0755C18.2039 16.0755 17.8765 16.3989 17.8765 16.7977V17.9444C17.8765 18.3433 18.2039 18.6666 18.6077 18.6667H19.7687C20.1726 18.6667 20.5 18.3433 20.5 17.9444V16.7977C20.5 16.3989 20.1726 16.0755 19.7687 16.0755H18.6077ZM12.2312 12.9271C11.8274 12.9271 11.5 13.2504 11.5 13.6493V14.7951C11.5 15.194 11.8274 15.5174 12.2312 15.5174H13.3923C13.7961 15.5173 14.1235 15.194 14.1235 14.7951V13.6493C14.1235 13.2504 13.7961 12.9271 13.3923 12.9271H12.2312ZM15.4199 12.9271C15.0161 12.9271 14.6887 13.2504 14.6887 13.6493V14.7951C14.6887 15.194 15.0161 15.5174 15.4199 15.5174H16.5801C16.9839 15.5174 17.3113 15.194 17.3113 14.7951V13.6493C17.3113 13.2504 16.9839 12.9271 16.5801 12.9271H15.4199ZM18.6077 12.9271C18.2039 12.9271 17.8765 13.2504 17.8765 13.6493V14.7951C17.8765 15.194 18.2039 15.5173 18.6077 15.5174H19.7687C20.1726 15.5174 20.5 15.194 20.5 14.7951V13.6493C20.5 13.2504 20.1726 12.9271 19.7687 12.9271H18.6077ZM12.2312 9.77778C11.8274 9.77778 11.5 10.1011 11.5 10.5V11.6467C11.5 12.0456 11.8274 12.3689 12.2312 12.3689H13.3923C13.7961 12.3689 14.1235 12.0455 14.1235 11.6467V10.5C14.1235 10.1011 13.7961 9.7778 13.3923 9.77778H12.2312ZM15.4199 9.77778C15.0161 9.77778 14.6887 10.1011 14.6887 10.5V11.6467C14.6887 12.0456 15.0161 12.3689 15.4199 12.3689H16.5801C16.9839 12.3689 17.3113 12.0456 17.3113 11.6467V10.5C17.3113 10.1011 16.9839 9.77778 16.5801 9.77778H15.4199ZM18.6077 9.77778C18.2039 9.7778 17.8765 10.1011 17.8765 10.5V11.6467C17.8765 12.0455 18.2039 12.3689 18.6077 12.3689H19.7687C20.1726 12.3689 20.5 12.0456 20.5 11.6467V10.5C20.5 10.1011 20.1726 9.77778 19.7687 9.77778H18.6077Z" fill="#9CEBFF"/>
<path d="M30 16C30 8.26801 23.732 2 16 2C8.26801 2 2 8.26801 2 16C2 23.732 8.26801 30 16 30V31C7.71573 31 1 24.2843 1 16C1 7.71573 7.71573 1 16 1C24.2843 1 31 7.71573 31 16C31 24.2843 24.2843 31 16 31V30C23.732 30 30 23.732 30 16Z" fill="#9CEBFF"/>
</svg>
