<svg width="31" height="30" viewBox="0 0 31 30" fill="none" xmlns="http://www.w3.org/2000/svg">
<path d="M15.1545 1C22.8865 1 29.1545 7.26801 29.1545 15C29.1545 22.732 22.8865 29 15.1545 29C7.42255 29 1.15454 22.732 1.15454 15C1.15454 7.26801 7.42255 1 15.1545 1Z" fill="#0072C9"/>
<path d="M29.1545 15C29.1545 7.26801 22.8865 1 15.1545 1C7.42255 1 1.15454 7.26801 1.15454 15C1.15454 22.732 7.42255 29 15.1545 29V30C6.87027 30 0.154541 23.2843 0.154541 15C0.154541 6.71573 6.87027 0 15.1545 0C23.4388 0 30.1545 6.71573 30.1545 15C30.1545 23.2843 23.4388 30 15.1545 30V29C22.8865 29 29.1545 22.732 29.1545 15Z" fill="#9CEBFF"/>
<path d="M14.2508 24.2057L7.55854 20.3537C7.27387 20.1897 7.05204 19.9706 6.89304 19.6962C6.73404 19.4217 6.65454 19.1204 6.65454 18.7922V11.2077C6.65454 10.8796 6.73404 10.5782 6.89304 10.3037C7.05204 10.0294 7.27387 9.81022 7.55854 9.64622L14.2508 5.79422C14.5353 5.63006 14.8365 5.54797 15.1545 5.54797C15.4725 5.54797 15.7738 5.63006 16.0583 5.79422L22.7505 9.64622C23.0352 9.81022 23.257 10.0294 23.416 10.3037C23.575 10.5782 23.6545 10.8796 23.6545 11.2077V18.7922C23.6545 19.1204 23.575 19.4217 23.416 19.6962C23.257 19.9706 23.0352 20.1897 22.7505 20.3537L16.0583 24.2057C15.7738 24.3699 15.4725 24.452 15.1545 24.452C14.8365 24.452 14.5353 24.3699 14.2508 24.2057ZM14.4045 15.4307V22.5692L15.0198 22.923C15.0648 22.9486 15.1097 22.9615 15.1545 22.9615C15.1994 22.9615 15.2443 22.9486 15.2893 22.923L15.9045 22.5692V15.4307L22.1545 11.8115V11.1655C22.1545 11.1333 22.1465 11.1012 22.1305 11.0692C22.1145 11.0372 22.0905 11.0116 22.0583 10.9922L21.3295 10.5692L15.1545 14.1385L8.97954 10.5692L8.25079 10.9922C8.21862 11.0116 8.19454 11.0372 8.17854 11.0692C8.16254 11.1012 8.15454 11.1333 8.15454 11.1655V11.8115L14.4045 15.4307Z" fill="#9CEBFF"/>
</svg>
