<svg width="32" height="32" viewBox="0 0 32 32" fill="none" xmlns="http://www.w3.org/2000/svg">
<path d="M29.4928 10.8051C32.0005 16.0154 31.0953 22.4564 26.775 26.7767C22.4453 31.1064 15.9855 32.0068 10.7692 29.4789C11.2725 29.6314 11.7869 29.7583 12.3112 29.8578C12.3349 29.8623 12.3586 29.8671 12.3824 29.8715C12.7277 29.9353 13.0771 29.987 13.4303 30.0267C13.4381 30.0276 13.4459 30.0278 13.4537 30.0287C13.6325 30.0485 13.8122 30.066 13.9928 30.0795C14.0006 30.0801 14.0084 30.0808 14.0162 30.0814C14.1786 30.0933 14.3417 30.1011 14.5055 30.1078C14.5396 30.1092 14.5738 30.1105 14.608 30.1117C14.7795 30.1175 14.9517 30.1224 15.1246 30.1224C23.4089 30.1224 30.1246 23.4067 30.1246 15.1224C30.1246 14.9482 30.1198 14.7747 30.1139 14.6019C30.1129 14.5729 30.1121 14.544 30.111 14.515C30.0598 13.2301 29.8475 11.987 29.4928 10.8051Z" fill="#0072C9"/>
<path d="M15.1246 1.12244C22.8566 1.12244 29.1246 7.39045 29.1246 15.1224C29.1246 22.8544 22.8566 29.1224 15.1246 29.1224C7.39265 29.1224 1.12463 22.8544 1.12463 15.1224C1.12463 7.39045 7.39265 1.12244 15.1246 1.12244Z" fill="#0072C9"/>
<path fill-rule="evenodd" clip-rule="evenodd" d="M15.1246 0.122437C19.5988 0.122437 23.6146 2.08196 26.3629 5.18884C26.485 5.29669 26.6062 5.40676 26.7252 5.5199L26.9694 5.75818L27.4821 6.27087L27.7526 6.54822C33.3383 12.4247 33.2482 21.7175 27.4821 27.4838L27.2057 27.7543C21.4224 33.2521 12.3289 33.2519 6.54553 27.7543L6.26917 27.4838L5.75549 26.9711L5.51721 26.7269C5.39331 26.5966 5.27344 26.4635 5.15588 26.3295C2.06941 23.5821 0.124634 19.5797 0.124634 15.1224C0.124634 6.83817 6.84036 0.122437 15.1246 0.122437ZM29.4918 10.8041C29.9023 12.1718 30.1246 13.6211 30.1246 15.1224C30.1246 23.4067 23.4089 30.1224 15.1246 30.1224C13.6097 30.1224 12.1477 29.8965 10.7692 29.4789C15.9855 32.0068 22.4453 31.1064 26.775 26.7767C31.0956 22.4561 32.0002 16.0147 29.4918 10.8041ZM15.1246 1.12244C7.39265 1.12244 1.12463 7.39045 1.12463 15.1224C1.12463 22.8544 7.39265 29.1224 15.1246 29.1224C22.8566 29.1224 29.1246 22.8544 29.1246 15.1224C29.1246 7.39045 22.8566 1.12244 15.1246 1.12244Z" fill="#9CEBFF"/>
<path d="M14.2209 24.3282L7.52863 20.4762C7.24397 20.3122 7.02213 20.093 6.86313 19.8187C6.70413 19.5442 6.62463 19.2428 6.62463 18.9147V11.3302C6.62463 11.002 6.70413 10.7007 6.86313 10.4262C7.02213 10.1518 7.24397 9.93266 7.52863 9.76866L14.2209 5.91666C14.5054 5.75249 14.8066 5.67041 15.1246 5.67041C15.4426 5.67041 15.7439 5.75249 16.0284 5.91666L22.7206 9.76866C23.0053 9.93266 23.2271 10.1518 23.3861 10.4262C23.5451 10.7007 23.6246 11.002 23.6246 11.3302V18.9147C23.6246 19.2428 23.5451 19.5442 23.3861 19.8187C23.2271 20.093 23.0053 20.3122 22.7206 20.4762L16.0284 24.3282C15.7439 24.4923 15.4426 24.5744 15.1246 24.5744C14.8066 24.5744 14.5054 24.4923 14.2209 24.3282ZM14.3746 15.5532V22.6917L14.9899 23.0454C15.0349 23.0711 15.0798 23.0839 15.1246 23.0839C15.1695 23.0839 15.2144 23.0711 15.2594 23.0454L15.8746 22.6917V15.5532L22.1246 11.9339V11.2879C22.1246 11.2557 22.1166 11.2237 22.1006 11.1917C22.0846 11.1597 22.0606 11.134 22.0284 11.1147L21.2996 10.6917L15.1246 14.2609L8.94963 10.6917L8.22088 11.1147C8.18872 11.134 8.16463 11.1597 8.14863 11.1917C8.13263 11.2237 8.12463 11.2557 8.12463 11.2879V11.9339L14.3746 15.5532Z" fill="#9CEBFF"/>
</svg>
