<svg width="32" height="32" viewBox="0 0 32 32" fill="none" xmlns="http://www.w3.org/2000/svg">
<path d="M16 2C23.732 2 30 8.26801 30 16C30 23.732 23.732 30 16 30C8.26801 30 2 23.732 2 16C2 8.26801 8.26801 2 16 2Z" fill="#0072C9"/>
<path d="M30 16C30 8.26801 23.732 2 16 2C8.26801 2 2 8.26801 2 16C2 23.732 8.26801 30 16 30V31C7.71573 31 1 24.2843 1 16C1 7.71573 7.71573 1 16 1C24.2843 1 31 7.71573 31 16C31 24.2843 24.2843 31 16 31V30C23.732 30 30 23.732 30 16Z" fill="#9CEBFF"/>
<path d="M10.2324 12.749C11.0324 12.749 11.7932 12.8452 12.5146 13.0381C13.236 13.2309 13.9178 13.5206 14.5605 13.9062C14.8161 14.0624 15.0155 14.2749 15.1582 14.5439H11.5996C11.0267 14.544 10.5129 14.7624 10.1123 15.167C9.71219 15.5713 9.5 16.0858 9.5 16.6553V17.0352H5.08984V15.4062C5.08984 15.1062 5.16085 14.8203 5.30371 14.5488C5.44649 14.2776 5.64639 14.0634 5.90332 13.9062C6.54618 13.5205 7.22876 13.2309 7.9502 13.0381C8.67161 12.8452 9.43243 12.749 10.2324 12.749Z" fill="#9CEBFF"/>
<path d="M21.7676 12.749C22.5675 12.749 23.3284 12.8453 24.0498 13.0381C24.7712 13.2309 25.4538 13.5205 26.0967 13.9062C26.3536 14.0633 26.5535 14.2776 26.6963 14.5488C26.8391 14.8203 26.9102 15.1062 26.9102 15.4062V17.0352H22.5V16.6553C22.5 16.0858 22.2878 15.5713 21.8877 15.167C21.4871 14.7624 20.9733 14.544 20.4004 14.5439H16.8418C16.9845 14.2749 17.1839 14.0624 17.4395 13.9062C18.0822 13.5206 18.764 13.2309 19.4854 13.0381C20.2067 12.8452 20.9676 12.749 21.7676 12.749Z" fill="#9CEBFF"/>
<path d="M10.2324 6.74902C10.9467 6.74904 11.5537 6.99904 12.0537 7.49902C12.5537 7.999 12.8037 8.60606 12.8037 9.32031C12.8037 10.0346 12.5537 10.6416 12.0537 11.1416C11.5537 11.6416 10.9467 11.8916 10.2324 11.8916C9.51813 11.8916 8.91113 11.6416 8.41113 11.1416C7.91114 10.6416 7.66113 10.0346 7.66113 9.32031C7.66115 8.60606 7.91115 7.999 8.41113 7.49902C8.91112 6.99907 9.51817 6.74902 10.2324 6.74902Z" fill="#9CEBFF"/>
<path d="M21.7676 6.74902C22.4818 6.74902 23.0889 6.99911 23.5889 7.49902C24.0888 7.999 24.3388 8.60606 24.3389 9.32031C24.3389 10.0346 24.0889 10.6416 23.5889 11.1416C23.0889 11.6416 22.4818 11.8916 21.7676 11.8916C21.0534 11.8916 20.4463 11.6416 19.9463 11.1416C19.4464 10.6416 19.1963 10.0345 19.1963 9.32031C19.1963 8.60608 19.4463 7.999 19.9463 7.49902C20.4463 6.99906 21.0534 6.74906 21.7676 6.74902Z" fill="#9CEBFF"/>
<path d="M13.8 25.5436V24.4325H14.9V23.3214H11.6C11.2975 23.3214 11.0385 23.2126 10.8231 22.995C10.6077 22.7774 10.5 22.5158 10.5 22.2102V16.6547C10.5 16.3491 10.6077 16.0876 10.8231 15.87C11.0385 15.6524 11.2975 15.5436 11.6 15.5436H20.4C20.7025 15.5436 20.9615 15.6524 21.1769 15.87C21.3923 16.0876 21.5 16.3491 21.5 16.6547V22.2102C21.5 22.5158 21.3923 22.7774 21.1769 22.995C20.9615 23.2126 20.7025 23.3214 20.4 23.3214H17.1V24.4325H18.2V25.5436H13.8Z" fill="#9CEBFF"/>
</svg>
