<svg width="32" height="32" viewBox="0 0 32 32" fill="none" xmlns="http://www.w3.org/2000/svg">
<path d="M29.4929 10.8051C32.0006 16.0154 31.0954 22.4564 26.7751 26.7767C22.4455 31.1064 15.9856 32.0068 10.7693 29.4789C11.2727 29.6314 11.7871 29.7583 12.3113 29.8578C12.335 29.8623 12.3588 29.8671 12.3826 29.8715C12.7279 29.9353 13.0773 29.987 13.4304 30.0267C13.4382 30.0276 13.4461 30.0278 13.4539 30.0287C13.6327 30.0485 13.8123 30.066 13.9929 30.0795C14.0007 30.0801 14.0085 30.0808 14.0164 30.0814C14.1787 30.0933 14.3419 30.1011 14.5056 30.1078C14.5398 30.1092 14.5739 30.1105 14.6082 30.1117C14.7797 30.1175 14.9518 30.1224 15.1248 30.1224C23.409 30.1224 30.1248 23.4067 30.1248 15.1224C30.1248 14.9482 30.1199 14.7747 30.114 14.6019C30.113 14.5729 30.1122 14.544 30.1111 14.515C30.0599 13.2301 29.8476 11.987 29.4929 10.8051Z" fill="#0072C9"/>
<path d="M15.1248 1.12244C22.8567 1.12244 29.1248 7.39045 29.1248 15.1224C29.1248 22.8544 22.8567 29.1224 15.1248 29.1224C7.39277 29.1224 1.12476 22.8544 1.12476 15.1224C1.12476 7.39045 7.39277 1.12244 15.1248 1.12244Z" fill="#0072C9"/>
<path d="M14.4981 16.9448H20.6757V21.6815C20.6757 22.0778 20.5346 22.417 20.2524 22.6992C19.9702 22.9814 19.631 23.1225 19.2347 23.1225H14.4981V16.9448ZM13.3024 15.7492H7.12476V11.0125C7.12476 10.6162 7.26585 10.277 7.54802 9.9948C7.8302 9.71262 8.16944 9.57153 8.56574 9.57153H13.3024V15.7492ZM13.3024 16.9448V23.1225H8.56574C8.16944 23.1225 7.8302 22.9814 7.54802 22.6992C7.26585 22.417 7.12476 22.0778 7.12476 21.6815V16.9448H13.3024Z" fill="#9CEBFF"/>
<path d="M20.6757 16.9448H14.4981V23.1225H19.2347C19.631 23.1225 19.9702 22.9814 20.2524 22.6992C20.5346 22.417 20.6757 22.0778 20.6757 21.6815V16.9448Z" fill="#9CEBFF"/>
<path d="M21.1123 7.77283C21.492 7.77283 21.8011 7.90012 22.0742 8.17322C22.3472 8.44629 22.4746 8.75552 22.4746 9.13513V15.099H15.1484V7.77283H21.1123Z" stroke="#9CEBFF" stroke-width="1.3"/>
<path fill-rule="evenodd" clip-rule="evenodd" d="M15.1248 0.122437C19.5989 0.122437 23.6148 2.08196 26.363 5.18884C26.4852 5.29669 26.6063 5.40676 26.7253 5.5199L26.9695 5.75818L27.4822 6.27087L27.7527 6.54822C33.3384 12.4247 33.2483 21.7175 27.4822 27.4838L27.2058 27.7543C21.4225 33.2521 12.329 33.2519 6.54565 27.7543L6.26929 27.4838L5.75562 26.9711L5.51733 26.7269C5.39343 26.5966 5.27356 26.4635 5.15601 26.3295C2.06953 23.5821 0.124756 19.5797 0.124756 15.1224C0.124756 6.83817 6.84048 0.122437 15.1248 0.122437ZM29.4919 10.8041C29.9025 12.1718 30.1248 13.6211 30.1248 15.1224C30.1248 23.4067 23.409 30.1224 15.1248 30.1224C13.6099 30.1224 12.1478 29.8965 10.7693 29.4789C15.9856 32.0068 22.4455 31.1064 26.7751 26.7767C31.0957 22.4561 32.0003 16.0147 29.4919 10.8041ZM15.1248 1.12244C7.39277 1.12244 1.12476 7.39045 1.12476 15.1224C1.12476 22.8544 7.39277 29.1224 15.1248 29.1224C22.8567 29.1224 29.1248 22.8544 29.1248 15.1224C29.1248 7.39045 22.8567 1.12244 15.1248 1.12244Z" fill="#9CEBFF"/>
</svg>
