<svg width="33" height="33" viewBox="0 0 33 33" fill="none" xmlns="http://www.w3.org/2000/svg">
<path d="M27.0243 21.833C27.7203 21.833 28.2899 22.4026 28.2899 23.0986V23.2344C28.2899 23.9304 27.7203 24.5 27.0243 24.5H5.55359C4.85774 24.4998 4.28992 23.9303 4.28992 23.2344V23.0986C4.28994 22.4028 4.85775 21.8332 5.55359 21.833H27.0243ZM27.0243 15.167C27.7202 15.167 28.2897 15.7358 28.2899 16.4316V16.5684C28.2897 17.2642 27.7202 17.833 27.0243 17.833H5.55359C4.85786 17.8328 4.29011 17.2641 4.28992 16.5684V16.4316C4.29011 15.7359 4.85786 15.1672 5.55359 15.167H27.0243ZM27.0243 8.5C27.7203 8.5 28.2899 9.06962 28.2899 9.76562V9.90137C28.2899 10.5974 27.7203 11.167 27.0243 11.167H5.55359C4.85775 11.1668 4.28994 10.5972 4.28992 9.90137V9.76562C4.28992 9.06973 4.85774 8.50018 5.55359 8.5H27.0243Z" fill="#231F20"/>
<mask id="mask0_348_6564" style="mask-type:luminance" maskUnits="userSpaceOnUse" x="4" y="8" width="25" height="17">
<path d="M27.0243 21.833C27.7203 21.833 28.2899 22.4026 28.2899 23.0986V23.2344C28.2899 23.9304 27.7203 24.5 27.0243 24.5H5.55359C4.85774 24.4998 4.28992 23.9303 4.28992 23.2344V23.0986C4.28994 22.4028 4.85775 21.8332 5.55359 21.833H27.0243ZM27.0243 15.167C27.7202 15.167 28.2897 15.7358 28.2899 16.4316V16.5684C28.2897 17.2642 27.7202 17.833 27.0243 17.833H5.55359C4.85786 17.8328 4.29011 17.2641 4.28992 16.5684V16.4316C4.29011 15.7359 4.85786 15.1672 5.55359 15.167H27.0243ZM27.0243 8.5C27.7203 8.5 28.2899 9.06962 28.2899 9.76562V9.90137C28.2899 10.5974 27.7203 11.167 27.0243 11.167H5.55359C4.85775 11.1668 4.28994 10.5972 4.28992 9.90137V9.76562C4.28992 9.06973 4.85774 8.50018 5.55359 8.5H27.0243Z" fill="white"/>
</mask>
<g mask="url(#mask0_348_6564)">
<rect x="0.289551" y="0.5" width="32" height="32" fill="#8F9BB2"/>
</g>
</svg>
