<svg width="24" height="25" viewBox="0 0 24 25" fill="none" xmlns="http://www.w3.org/2000/svg">
<path fill-rule="evenodd" clip-rule="evenodd" d="M14 13.5006H10C9.45 13.5006 9 13.9506 9 14.5006C9 15.0506 9.45 15.5006 10 15.5006H14C14.55 15.5006 15 15.0506 15 14.5006C15 13.9506 14.55 13.5006 14 13.5006ZM20 18.569C20 18.807 19.776 19.001 19.5 19.001H4.5C4.224 19.001 4 18.807 4 18.569V14.256V6.43198C4 6.19398 4.224 6.00098 4.5 6.00098H8.626L11.226 9.17898C11.416 9.41198 11.7 9.54698 12 9.54698H19.5C19.776 9.54698 20 9.73998 20 9.97898V18.569ZM19.5 7.54698H12.474L9.875 4.36798C9.685 4.13498 9.4 4.00098 9.101 4.00098H4.5C3.122 4.00098 2 5.09098 2 6.43198V18.569C2 19.91 3.122 21.001 4.5 21.001H19.5C20.878 21.001 22 19.91 22 18.569V9.97898C22 8.63698 20.878 7.54698 19.5 7.54698Z" fill="#8F9BB2"/>
<mask id="mask0_348_6908" style="mask-type:luminance" maskUnits="userSpaceOnUse" x="2" y="4" width="20" height="18">
<path fill-rule="evenodd" clip-rule="evenodd" d="M14 13.5006H10C9.45 13.5006 9 13.9506 9 14.5006C9 15.0506 9.45 15.5006 10 15.5006H14C14.55 15.5006 15 15.0506 15 14.5006C15 13.9506 14.55 13.5006 14 13.5006ZM20 18.569C20 18.807 19.776 19.001 19.5 19.001H4.5C4.224 19.001 4 18.807 4 18.569V14.256V6.43198C4 6.19398 4.224 6.00098 4.5 6.00098H8.626L11.226 9.17898C11.416 9.41198 11.7 9.54698 12 9.54698H19.5C19.776 9.54698 20 9.73998 20 9.97898V18.569ZM19.5 7.54698H12.474L9.875 4.36798C9.685 4.13498 9.4 4.00098 9.101 4.00098H4.5C3.122 4.00098 2 5.09098 2 6.43198V18.569C2 19.91 3.122 21.001 4.5 21.001H19.5C20.878 21.001 22 19.91 22 18.569V9.97898C22 8.63698 20.878 7.54698 19.5 7.54698Z" fill="white"/>
</mask>
<g mask="url(#mask0_348_6908)">
<rect y="0.500977" width="24" height="24" fill="#8F9BB2"/>
</g>
</svg>
