<svg width="33" height="33" viewBox="0 0 33 33" fill="none" xmlns="http://www.w3.org/2000/svg">
<path d="M11.5684 27.1066L22.8821 15.7929C23.9192 14.7558 24.4378 13.4988 24.4378 12.0217C24.4378 10.5446 23.9192 9.28754 22.8821 8.25045C21.845 7.21336 20.588 6.69482 19.1109 6.69482C17.6338 6.69482 16.3767 7.21336 15.3397 8.25045L11.3799 12.2102L14.3968 12.2103L14.3968 14.8501H6.85437V7.30764L9.49424 7.30764L9.49424 10.3246L13.454 6.36484C15.0254 4.79349 16.911 4.00781 19.1109 4.00781C21.3108 4.00781 23.1964 4.79349 24.7677 6.36484C26.3391 7.93618 27.1248 9.8218 27.1248 12.0217C27.1248 14.2216 26.3391 16.1072 24.7677 17.6785L13.454 28.9923L11.5684 27.1066Z" fill="#8F9BB2"/>
</svg>
