<svg width="33" height="33" viewBox="0 0 33 33" fill="none" xmlns="http://www.w3.org/2000/svg">
<path d="M12.9895 24.5003C12.2562 24.5003 11.6284 24.2392 11.1062 23.717C10.5839 23.1948 10.3228 22.567 10.3228 21.8337V5.83366C10.3228 5.10033 10.5839 4.47255 11.1062 3.95033C11.6284 3.4281 12.2562 3.16699 12.9895 3.16699H24.9895C25.7228 3.16699 26.3506 3.4281 26.8728 3.95033C27.3951 4.47255 27.6562 5.10033 27.6562 5.83366V21.8337C27.6562 22.567 27.3951 23.1948 26.8728 23.717C26.3506 24.2392 25.7228 24.5003 24.9895 24.5003H12.9895ZM12.9895 21.8337H24.9895V5.83366H12.9895V21.8337ZM7.65617 29.8337C6.92284 29.8337 6.29506 29.5725 5.77284 29.0503C5.25061 28.5281 4.9895 27.9003 4.9895 27.167V9.83366C4.9895 9.45588 5.11728 9.13921 5.37284 8.88366C5.62839 8.6281 5.94506 8.50033 6.32284 8.50033C6.70061 8.50033 7.01728 8.6281 7.27284 8.88366C7.52839 9.13921 7.65617 9.45588 7.65617 9.83366V27.167H20.9895C21.3673 27.167 21.6839 27.2948 21.9395 27.5503C22.1951 27.8059 22.3228 28.1225 22.3228 28.5003C22.3228 28.8781 22.1951 29.1948 21.9395 29.4503C21.6839 29.7059 21.3673 29.8337 20.9895 29.8337H7.65617Z" fill="#8F9BB2"/>
</svg>
