<svg width="33" height="33" viewBox="0 0 33 33" fill="none" xmlns="http://www.w3.org/2000/svg">
<path d="M16.9895 16.5003C16.6117 16.5003 16.2951 16.3725 16.0395 16.117C15.7839 15.8614 15.6562 15.5448 15.6562 15.167V4.50033C15.6562 4.12255 15.7839 3.80588 16.0395 3.55033C16.2951 3.29477 16.6117 3.16699 16.9895 3.16699C17.3673 3.16699 17.6839 3.29477 17.9395 3.55033C18.1951 3.80588 18.3228 4.12255 18.3228 4.50033V15.167C18.3228 15.5448 18.1951 15.8614 17.9395 16.117C17.6839 16.3725 17.3673 16.5003 16.9895 16.5003ZM16.9895 28.5003C15.3228 28.5003 13.7617 28.1837 12.3062 27.5503C10.8506 26.917 9.58395 26.0614 8.50617 24.9837C7.42839 23.9059 6.57284 22.6392 5.9395 21.1837C5.30617 19.7281 4.9895 18.167 4.9895 16.5003C4.9895 15.1448 5.21172 13.8281 5.65617 12.5503C6.10061 11.2725 6.74506 10.1003 7.5895 9.03366C7.83395 8.72255 8.14506 8.57255 8.52284 8.58366C8.90061 8.59477 9.23395 8.74477 9.52284 9.03366C9.76728 9.2781 9.87839 9.5781 9.85617 9.93366C9.83395 10.2892 9.71172 10.6225 9.4895 10.9337C8.8895 11.7337 8.43395 12.6114 8.12284 13.567C7.81172 14.5225 7.65617 15.5003 7.65617 16.5003C7.65617 19.1003 8.56172 21.3059 10.3728 23.117C12.1839 24.9281 14.3895 25.8337 16.9895 25.8337C19.5895 25.8337 21.7951 24.9281 23.6062 23.117C25.4173 21.3059 26.3228 19.1003 26.3228 16.5003C26.3228 15.4781 26.1728 14.4837 25.8728 13.517C25.5728 12.5503 25.1006 11.667 24.4562 10.867C24.2339 10.5781 24.1117 10.2614 24.0895 9.91699C24.0673 9.57255 24.1784 9.2781 24.4228 9.03366C24.6895 8.76699 25.0117 8.6281 25.3895 8.61699C25.7673 8.60588 26.0784 8.74477 26.3228 9.03366C27.1895 10.1003 27.8506 11.267 28.3062 12.5337C28.7617 13.8003 28.9895 15.1225 28.9895 16.5003C28.9895 18.167 28.6728 19.7281 28.0395 21.1837C27.4062 22.6392 26.5506 23.9059 25.4728 24.9837C24.3951 26.0614 23.1284 26.917 21.6728 27.5503C20.2173 28.1837 18.6562 28.5003 16.9895 28.5003Z" fill="#8F9BB2"/>
</svg>
