<svg width="24" height="25" viewBox="0 0 24 25" fill="none" xmlns="http://www.w3.org/2000/svg">
<path fill-rule="evenodd" clip-rule="evenodd" d="M10 14.501H14V10.501H10V14.501ZM16 15.251C16 15.94 15.439 16.501 14.75 16.501H9.25C8.561 16.501 8 15.94 8 15.251V9.75098C8 9.06198 8.561 8.50098 9.25 8.50098H14.75C15.439 8.50098 16 9.06198 16 9.75098V15.251ZM12 2.50098C6.486 2.50098 2 6.98698 2 12.501C2 18.015 6.486 22.501 12 22.501C17.514 22.501 22 18.015 22 12.501C22 6.98698 17.514 2.50098 12 2.50098Z" fill="#8F9BB2"/>
<mask id="mask0_348_6900" style="mask-type:luminance" maskUnits="userSpaceOnUse" x="2" y="2" width="20" height="21">
<path fill-rule="evenodd" clip-rule="evenodd" d="M10 14.501H14V10.501H10V14.501ZM16 15.251C16 15.94 15.439 16.501 14.75 16.501H9.25C8.561 16.501 8 15.94 8 15.251V9.75098C8 9.06198 8.561 8.50098 9.25 8.50098H14.75C15.439 8.50098 16 9.06198 16 9.75098V15.251ZM12 2.50098C6.486 2.50098 2 6.98698 2 12.501C2 18.015 6.486 22.501 12 22.501C17.514 22.501 22 18.015 22 12.501C22 6.98698 17.514 2.50098 12 2.50098Z" fill="white"/>
</mask>
<g mask="url(#mask0_348_6900)">
<rect y="0.500977" width="24" height="24" fill="#8F9BB2"/>
</g>
</svg>
