<svg width="33" height="33" viewBox="0 0 33 33" fill="none" xmlns="http://www.w3.org/2000/svg">
<path d="M8.98954 16.5671C8.98954 16.9226 9.01176 17.2726 9.05621 17.6171C9.10065 17.9615 9.17843 18.3004 9.28954 18.6337C9.40065 19.0115 9.38954 19.3726 9.25621 19.7171C9.12288 20.0615 8.88954 20.3115 8.55621 20.4671C8.20065 20.6448 7.85065 20.6615 7.50621 20.5171C7.16176 20.3726 6.93399 20.1115 6.82288 19.7337C6.6451 19.2226 6.51732 18.7004 6.43954 18.1671C6.36176 17.6337 6.32288 17.1004 6.32288 16.5671C6.32288 13.5893 7.35621 11.0559 9.42288 8.96706C11.4895 6.87817 14.0118 5.83372 16.9895 5.83372H17.2229L16.0229 4.63372C15.7784 4.38928 15.6562 4.07817 15.6562 3.70039C15.6562 3.32261 15.7784 3.0115 16.0229 2.76706C16.2673 2.52261 16.5784 2.40039 16.9562 2.40039C17.334 2.40039 17.6451 2.52261 17.8895 2.76706L21.3562 6.23372C21.6229 6.50039 21.7562 6.8115 21.7562 7.16706C21.7562 7.52261 21.6229 7.83372 21.3562 8.10039L17.8895 11.5671C17.6451 11.8115 17.334 11.9337 16.9562 11.9337C16.5784 11.9337 16.2673 11.8115 16.0229 11.5671C15.7784 11.3226 15.6562 11.0115 15.6562 10.6337C15.6562 10.2559 15.7784 9.94483 16.0229 9.70039L17.2229 8.50039H16.9895C14.7673 8.50039 12.8784 9.28372 11.3229 10.8504C9.76732 12.4171 8.98954 14.3226 8.98954 16.5671ZM24.9895 16.4337C24.9895 16.0782 24.9673 15.7282 24.9229 15.3837C24.8784 15.0393 24.8007 14.7004 24.6895 14.3671C24.5784 13.9893 24.5895 13.6282 24.7229 13.2837C24.8562 12.9393 25.0895 12.6893 25.4229 12.5337C25.7784 12.3559 26.1284 12.3393 26.4729 12.4837C26.8173 12.6282 27.0451 12.8893 27.1562 13.2671C27.334 13.7782 27.4618 14.3004 27.5395 14.8337C27.6173 15.3671 27.6562 15.9004 27.6562 16.4337C27.6562 19.4115 26.6229 21.9448 24.5562 24.0337C22.4895 26.1226 19.9673 27.1671 16.9895 27.1671H16.7562L17.9562 28.3671C18.2007 28.6115 18.3229 28.9226 18.3229 29.3004C18.3229 29.6782 18.2007 29.9893 17.9562 30.2337C17.7118 30.4782 17.4007 30.6004 17.0229 30.6004C16.6451 30.6004 16.334 30.4782 16.0895 30.2337L12.6229 26.7671C12.3562 26.5004 12.2229 26.1893 12.2229 25.8337C12.2229 25.4782 12.3562 25.1671 12.6229 24.9004L16.0895 21.4337C16.334 21.1893 16.6451 21.0671 17.0229 21.0671C17.4007 21.0671 17.7118 21.1893 17.9562 21.4337C18.2007 21.6782 18.3229 21.9893 18.3229 22.3671C18.3229 22.7448 18.2007 23.0559 17.9562 23.3004L16.7562 24.5004H16.9895C19.2118 24.5004 21.1007 23.7171 22.6562 22.1504C24.2118 20.5837 24.9895 18.6782 24.9895 16.4337Z" fill="#8F9BB2"/>
</svg>
