<svg width="24" height="25" viewBox="0 0 24 25" fill="none" xmlns="http://www.w3.org/2000/svg">
<path fill-rule="evenodd" clip-rule="evenodd" d="M20 18.501C20 19.052 19.551 19.501 19 19.501H17V9.50098H19C19.551 9.50098 20 9.94998 20 10.501V18.501ZM4 18.501V10.501C4 9.94998 4.449 9.50098 5 9.50098H7V19.501H5C4.449 19.501 4 19.052 4 18.501ZM10 6.00098C10 5.72498 10.224 5.50098 10.5 5.50098H13.5C13.776 5.50098 14 5.72498 14 6.00098V7.50098H10V6.00098ZM9 19.501H15V9.50098H9V19.501ZM19 7.50098H16V6.00098C16 4.62298 14.878 3.50098 13.5 3.50098H10.5C9.122 3.50098 8 4.62298 8 6.00098V7.50098H5C3.346 7.50098 2 8.84698 2 10.501V18.501C2 20.155 3.346 21.501 5 21.501H19C20.654 21.501 22 20.155 22 18.501V10.501C22 8.84698 20.654 7.50098 19 7.50098Z" fill="#8F9BB2"/>
<mask id="mask0_348_6910" style="mask-type:luminance" maskUnits="userSpaceOnUse" x="2" y="3" width="20" height="19">
<path fill-rule="evenodd" clip-rule="evenodd" d="M20 18.501C20 19.052 19.551 19.501 19 19.501H17V9.50098H19C19.551 9.50098 20 9.94998 20 10.501V18.501ZM4 18.501V10.501C4 9.94998 4.449 9.50098 5 9.50098H7V19.501H5C4.449 19.501 4 19.052 4 18.501ZM10 6.00098C10 5.72498 10.224 5.50098 10.5 5.50098H13.5C13.776 5.50098 14 5.72498 14 6.00098V7.50098H10V6.00098ZM9 19.501H15V9.50098H9V19.501ZM19 7.50098H16V6.00098C16 4.62298 14.878 3.50098 13.5 3.50098H10.5C9.122 3.50098 8 4.62298 8 6.00098V7.50098H5C3.346 7.50098 2 8.84698 2 10.501V18.501C2 20.155 3.346 21.501 5 21.501H19C20.654 21.501 22 20.155 22 18.501V10.501C22 8.84698 20.654 7.50098 19 7.50098Z" fill="white"/>
</mask>
<g mask="url(#mask0_348_6910)">
<rect y="0.500977" width="24" height="24" fill="#8F9BB2"/>
</g>
</svg>
