<svg width="24" height="25" viewBox="0 0 24 25" fill="none" xmlns="http://www.w3.org/2000/svg">
<path d="M11.3054 11.7812C11.6994 11.4054 12.3218 11.4081 12.7068 11.7939L15.7068 14.7939C16.0978 15.1849 16.0978 15.817 15.7068 16.208C15.5118 16.403 15.2557 16.501 14.9998 16.501C14.7438 16.5009 14.4877 16.403 14.2927 16.208L12.9998 14.915V20.501C12.9998 21.054 12.5518 21.501 11.9998 21.501C11.4478 21.5009 10.9998 21.0539 10.9998 20.501V14.8574L9.69507 16.1172C9.29807 16.5022 8.66501 16.4888 8.28101 16.0918C7.89712 15.6938 7.90846 15.0617 8.30542 14.6777L11.3054 11.7812ZM11.9998 3.50098C14.5807 3.50098 16.8545 5.16197 17.6746 7.5459C20.1136 7.8769 21.9998 9.97298 21.9998 12.501C21.9998 13.7219 21.5556 14.8966 20.7498 15.8096C20.5518 16.0326 20.2768 16.1484 19.9998 16.1484C19.7648 16.1484 19.5286 16.0663 19.3376 15.8984C18.9247 15.5315 18.8849 14.9004 19.2507 14.4854C19.7337 13.9394 19.9998 13.233 19.9998 12.501C19.9998 10.847 18.6538 9.50098 16.9998 9.50098H16.9001C16.4242 9.50098 16.0138 9.16512 15.9197 8.69824C15.5457 6.84624 13.8978 5.50098 11.9998 5.50098C10.1028 5.50098 8.45381 6.84624 8.08081 8.69824C7.98672 9.16511 7.57528 9.50098 7.09937 9.50098H6.99976C5.34576 9.50098 3.99976 10.847 3.99976 12.501C3.99976 13.233 4.26576 13.9394 4.74976 14.4854C5.11456 14.9004 5.07579 15.5315 4.66187 15.8984C4.24786 16.2643 3.61568 16.2225 3.25073 15.8096C2.44387 14.8966 1.99976 13.7219 1.99976 12.501C1.99976 9.97298 3.88595 7.8769 6.32495 7.5459C7.14599 5.16197 9.4198 3.50098 11.9998 3.50098Z" fill="#8F9BB2"/>
<mask id="mask0_348_6906" style="mask-type:luminance" maskUnits="userSpaceOnUse" x="1" y="3" width="21" height="19">
<path d="M11.3054 11.7812C11.6994 11.4054 12.3218 11.4081 12.7068 11.7939L15.7068 14.7939C16.0978 15.1849 16.0978 15.817 15.7068 16.208C15.5118 16.403 15.2557 16.501 14.9998 16.501C14.7438 16.5009 14.4877 16.403 14.2927 16.208L12.9998 14.915V20.501C12.9998 21.054 12.5518 21.501 11.9998 21.501C11.4478 21.5009 10.9998 21.0539 10.9998 20.501V14.8574L9.69507 16.1172C9.29807 16.5022 8.66501 16.4888 8.28101 16.0918C7.89712 15.6938 7.90846 15.0617 8.30542 14.6777L11.3054 11.7812ZM11.9998 3.50098C14.5807 3.50098 16.8545 5.16197 17.6746 7.5459C20.1136 7.8769 21.9998 9.97298 21.9998 12.501C21.9998 13.7219 21.5556 14.8966 20.7498 15.8096C20.5518 16.0326 20.2768 16.1484 19.9998 16.1484C19.7648 16.1484 19.5286 16.0663 19.3376 15.8984C18.9247 15.5315 18.8849 14.9004 19.2507 14.4854C19.7337 13.9394 19.9998 13.233 19.9998 12.501C19.9998 10.847 18.6538 9.50098 16.9998 9.50098H16.9001C16.4242 9.50098 16.0138 9.16512 15.9197 8.69824C15.5457 6.84624 13.8978 5.50098 11.9998 5.50098C10.1028 5.50098 8.45381 6.84624 8.08081 8.69824C7.98672 9.16511 7.57528 9.50098 7.09937 9.50098H6.99976C5.34576 9.50098 3.99976 10.847 3.99976 12.501C3.99976 13.233 4.26576 13.9394 4.74976 14.4854C5.11456 14.9004 5.07579 15.5315 4.66187 15.8984C4.24786 16.2643 3.61568 16.2225 3.25073 15.8096C2.44387 14.8966 1.99976 13.7219 1.99976 12.501C1.99976 9.97298 3.88595 7.8769 6.32495 7.5459C7.14599 5.16197 9.4198 3.50098 11.9998 3.50098Z" fill="white"/>
</mask>
<g mask="url(#mask0_348_6906)">
<rect y="0.500977" width="24" height="24" fill="#8F9BB2"/>
</g>
</svg>
