<svg width="32" height="32" viewBox="0 0 32 32" fill="none" xmlns="http://www.w3.org/2000/svg">
<path fill-rule="evenodd" clip-rule="evenodd" d="M15.9998 20.6667C14.8972 20.6667 13.9998 19.7693 13.9998 18.6667C13.9998 17.564 14.8972 16.6667 15.9998 16.6667C17.1025 16.6667 17.9998 17.564 17.9998 18.6667C17.9998 19.7693 17.1025 20.6667 15.9998 20.6667ZM15.9998 14C13.4265 14 11.3332 16.0933 11.3332 18.6667C11.3332 21.24 13.4265 23.3333 15.9998 23.3333C18.5732 23.3333 20.6665 21.24 20.6665 18.6667C20.6665 16.0933 18.5732 14 15.9998 14ZM26.6665 24C26.6665 24.7347 26.0692 25.3333 25.3332 25.3333H6.6665C5.9305 25.3333 5.33317 24.7347 5.33317 24V13.3333C5.33317 12.5987 5.9305 12 6.6665 12H25.3332C26.0692 12 26.6665 12.5987 26.6665 13.3333V24ZM13.3332 7.33333C13.3332 6.96533 13.6332 6.66667 13.9998 6.66667H17.9998C18.3665 6.66667 18.6665 6.96533 18.6665 7.33333V9.33333H13.3332V7.33333ZM25.3332 9.33333H21.3332V7.33333C21.3332 5.496 19.8385 4 17.9998 4H13.9998C12.1612 4 10.6665 5.496 10.6665 7.33333V9.33333H6.6665C4.46117 9.33333 2.6665 11.128 2.6665 13.3333V24C2.6665 26.2053 4.46117 28 6.6665 28H25.3332C27.5385 28 29.3332 26.2053 29.3332 24V13.3333C29.3332 11.128 27.5385 9.33333 25.3332 9.33333Z" fill="#8F9BB2"/>
<mask id="mask0_749_11846" style="mask-type:luminance" maskUnits="userSpaceOnUse" x="2" y="4" width="28" height="24">
<path fill-rule="evenodd" clip-rule="evenodd" d="M15.9998 20.6667C14.8972 20.6667 13.9998 19.7693 13.9998 18.6667C13.9998 17.564 14.8972 16.6667 15.9998 16.6667C17.1025 16.6667 17.9998 17.564 17.9998 18.6667C17.9998 19.7693 17.1025 20.6667 15.9998 20.6667ZM15.9998 14C13.4265 14 11.3332 16.0933 11.3332 18.6667C11.3332 21.24 13.4265 23.3333 15.9998 23.3333C18.5732 23.3333 20.6665 21.24 20.6665 18.6667C20.6665 16.0933 18.5732 14 15.9998 14ZM26.6665 24C26.6665 24.7347 26.0692 25.3333 25.3332 25.3333H6.6665C5.9305 25.3333 5.33317 24.7347 5.33317 24V13.3333C5.33317 12.5987 5.9305 12 6.6665 12H25.3332C26.0692 12 26.6665 12.5987 26.6665 13.3333V24ZM13.3332 7.33333C13.3332 6.96533 13.6332 6.66667 13.9998 6.66667H17.9998C18.3665 6.66667 18.6665 6.96533 18.6665 7.33333V9.33333H13.3332V7.33333ZM25.3332 9.33333H21.3332V7.33333C21.3332 5.496 19.8385 4 17.9998 4H13.9998C12.1612 4 10.6665 5.496 10.6665 7.33333V9.33333H6.6665C4.46117 9.33333 2.6665 11.128 2.6665 13.3333V24C2.6665 26.2053 4.46117 28 6.6665 28H25.3332C27.5385 28 29.3332 26.2053 29.3332 24V13.3333C29.3332 11.128 27.5385 9.33333 25.3332 9.33333Z" fill="white"/>
</mask>
<g mask="url(#mask0_749_11846)">
<rect width="32" height="32" fill="#8F9BB2"/>
</g>
</svg>
