<svg width="24" height="25" viewBox="0 0 24 25" fill="none" xmlns="http://www.w3.org/2000/svg">
<path d="M19 16.501C19.55 16.501 20 16.951 20 17.501V19.501C20 20.051 19.55 20.501 19 20.501H5C4.45 20.501 4 20.051 4 19.501V17.501C4 16.951 4.45 16.501 5 16.501C5.55 16.501 6 16.951 6 17.501V18.501H18V17.501C18 16.951 18.45 16.501 19 16.501ZM12 3.50098C12.553 3.50098 13 3.94898 13 4.50098V12.5L15.4004 10.7012C15.8424 10.3683 16.4688 10.4594 16.7998 10.9014C17.1317 11.3434 17.0416 11.9698 16.5996 12.3008L12.5996 15.3008C12.4226 15.4337 12.2109 15.501 12 15.501C11.799 15.501 11.5978 15.4403 11.4248 15.3193L7.4248 12.5049C6.97308 12.1869 6.86402 11.5632 7.18164 11.1123C7.49964 10.6603 8.1232 10.5511 8.5752 10.8691L11.0029 12.5762C11.0011 12.5513 11 12.5263 11 12.501V4.50098C11 3.94898 11.447 3.50098 12 3.50098Z" fill="#8F9BB2"/>
<mask id="mask0_348_7242" style="mask-type:luminance" maskUnits="userSpaceOnUse" x="4" y="3" width="16" height="18">
<path d="M19 16.501C19.55 16.501 20 16.951 20 17.501V19.501C20 20.051 19.55 20.501 19 20.501H5C4.45 20.501 4 20.051 4 19.501V17.501C4 16.951 4.45 16.501 5 16.501C5.55 16.501 6 16.951 6 17.501V18.501H18V17.501C18 16.951 18.45 16.501 19 16.501ZM12 3.50098C12.553 3.50098 13 3.94898 13 4.50098V12.5L15.4004 10.7012C15.8424 10.3683 16.4688 10.4594 16.7998 10.9014C17.1317 11.3434 17.0416 11.9698 16.5996 12.3008L12.5996 15.3008C12.4226 15.4337 12.2109 15.501 12 15.501C11.799 15.501 11.5978 15.4403 11.4248 15.3193L7.4248 12.5049C6.97308 12.1869 6.86402 11.5632 7.18164 11.1123C7.49964 10.6603 8.1232 10.5511 8.5752 10.8691L11.0029 12.5762C11.0011 12.5513 11 12.5263 11 12.501V4.50098C11 3.94898 11.447 3.50098 12 3.50098Z" fill="white"/>
</mask>
<g mask="url(#mask0_348_7242)">
<rect y="0.500977" width="24" height="24" fill="#8F9BB2"/>
</g>
</svg>
