<svg width="24" height="25" viewBox="0 0 24 25" fill="none" xmlns="http://www.w3.org/2000/svg">
<path fill-rule="evenodd" clip-rule="evenodd" d="M15 18.3389L13.144 12.7719L18.712 7.20291L15 18.3389ZM17.298 5.78891L11.73 11.3569L6.162 9.50091L17.298 5.78891ZM21.99 3.44891C21.985 3.35591 21.968 3.26591 21.937 3.17891C21.927 3.14791 21.916 3.11791 21.902 3.08791C21.854 2.98091 21.793 2.87991 21.707 2.79391C21.621 2.70791 21.52 2.64691 21.412 2.59891C21.383 2.58491 21.354 2.57391 21.323 2.56391C21.234 2.53291 21.143 2.51491 21.048 2.50991C21.026 2.50891 21.006 2.50391 20.983 2.50391C20.883 2.50591 20.782 2.51991 20.684 2.55191L2.684 8.55191C2.275 8.68891 2 9.06991 2 9.50091C2 9.93191 2.275 10.3139 2.684 10.4499L11.209 13.2919L14.052 21.8179C14.188 22.2259 14.569 22.5009 15 22.5009C15.431 22.5009 15.812 22.2259 15.948 21.8179L21.948 3.81791C21.98 3.71891 21.995 3.61891 21.996 3.51891C21.997 3.49491 21.991 3.47291 21.99 3.44891Z" fill="#8F9BB2"/>
<mask id="mask0_348_6902" style="mask-type:luminance" maskUnits="userSpaceOnUse" x="2" y="2" width="20" height="21">
<path fill-rule="evenodd" clip-rule="evenodd" d="M15 18.3389L13.144 12.7719L18.712 7.20291L15 18.3389ZM17.298 5.78891L11.73 11.3569L6.162 9.50091L17.298 5.78891ZM21.99 3.44891C21.985 3.35591 21.968 3.26591 21.937 3.17891C21.927 3.14791 21.916 3.11791 21.902 3.08791C21.854 2.98091 21.793 2.87991 21.707 2.79391C21.621 2.70791 21.52 2.64691 21.412 2.59891C21.383 2.58491 21.354 2.57391 21.323 2.56391C21.234 2.53291 21.143 2.51491 21.048 2.50991C21.026 2.50891 21.006 2.50391 20.983 2.50391C20.883 2.50591 20.782 2.51991 20.684 2.55191L2.684 8.55191C2.275 8.68891 2 9.06991 2 9.50091C2 9.93191 2.275 10.3139 2.684 10.4499L11.209 13.2919L14.052 21.8179C14.188 22.2259 14.569 22.5009 15 22.5009C15.431 22.5009 15.812 22.2259 15.948 21.8179L21.948 3.81791C21.98 3.71891 21.995 3.61891 21.996 3.51891C21.997 3.49491 21.991 3.47291 21.99 3.44891Z" fill="white"/>
</mask>
<g mask="url(#mask0_348_6902)">
<rect y="0.500977" width="24" height="24" fill="#8F9BB2"/>
</g>
</svg>
