<svg width="24" height="25" viewBox="0 0 24 25" fill="none" xmlns="http://www.w3.org/2000/svg">
<path fill-rule="evenodd" clip-rule="evenodd" d="M20.3032 13.927C19.7772 13.76 19.2152 14.051 19.0472 14.577C18.1102 17.523 15.3522 19.501 12.1842 19.501C8.22218 19.501 5.00018 16.361 5.00018 12.501C5.00018 8.64198 8.22218 5.50098 12.1842 5.50098C13.9122 5.50098 15.5422 6.10298 16.8292 7.17098L14.6632 6.81398C14.1132 6.71398 13.6032 7.09298 13.5132 7.63698C13.4232 8.18198 13.7922 8.69698 14.3372 8.78598L18.5832 9.48798C18.6382 9.49698 18.6942 9.50098 18.7472 9.50098C18.8662 9.50098 18.9822 9.47998 19.0902 9.43998C19.1272 9.42598 19.1572 9.39998 19.1932 9.38098C19.2592 9.34698 19.3282 9.31698 19.3852 9.26898C19.4212 9.23998 19.4442 9.19798 19.4752 9.16398C19.5222 9.11498 19.5722 9.06798 19.6072 9.00798C19.6322 8.96498 19.6422 8.91398 19.6612 8.86598C19.6852 8.80698 19.7172 8.75198 19.7292 8.68698L20.4832 4.68698C20.5852 4.14398 20.2282 3.61998 19.6852 3.51898C19.1442 3.42098 18.6192 3.77398 18.5172 4.31598L18.2452 5.75698C16.5812 4.31598 14.4482 3.50098 12.1842 3.50098C7.12018 3.50098 3.00018 7.53798 3.00018 12.501C3.00018 17.464 7.12018 21.501 12.1842 21.501C16.2262 21.501 19.7502 18.962 20.9532 15.183C21.1202 14.657 20.8292 14.095 20.3032 13.927Z" fill="#8F9BB2"/>
<mask id="mask0_348_6904" style="mask-type:luminance" maskUnits="userSpaceOnUse" x="3" y="3" width="19" height="19">
<path fill-rule="evenodd" clip-rule="evenodd" d="M20.3032 13.927C19.7772 13.76 19.2152 14.051 19.0472 14.577C18.1102 17.523 15.3522 19.501 12.1842 19.501C8.22218 19.501 5.00018 16.361 5.00018 12.501C5.00018 8.64198 8.22218 5.50098 12.1842 5.50098C13.9122 5.50098 15.5422 6.10298 16.8292 7.17098L14.6632 6.81398C14.1132 6.71398 13.6032 7.09298 13.5132 7.63698C13.4232 8.18198 13.7922 8.69698 14.3372 8.78598L18.5832 9.48798C18.6382 9.49698 18.6942 9.50098 18.7472 9.50098C18.8662 9.50098 18.9822 9.47998 19.0902 9.43998C19.1272 9.42598 19.1572 9.39998 19.1932 9.38098C19.2592 9.34698 19.3282 9.31698 19.3852 9.26898C19.4212 9.23998 19.4442 9.19798 19.4752 9.16398C19.5222 9.11498 19.5722 9.06798 19.6072 9.00798C19.6322 8.96498 19.6422 8.91398 19.6612 8.86598C19.6852 8.80698 19.7172 8.75198 19.7292 8.68698L20.4832 4.68698C20.5852 4.14398 20.2282 3.61998 19.6852 3.51898C19.1442 3.42098 18.6192 3.77398 18.5172 4.31598L18.2452 5.75698C16.5812 4.31598 14.4482 3.50098 12.1842 3.50098C7.12018 3.50098 3.00018 7.53798 3.00018 12.501C3.00018 17.464 7.12018 21.501 12.1842 21.501C16.2262 21.501 19.7502 18.962 20.9532 15.183C21.1202 14.657 20.8292 14.095 20.3032 13.927Z" fill="white"/>
</mask>
<g mask="url(#mask0_348_6904)">
<rect y="0.500977" width="24" height="24" fill="#8F9BB2"/>
</g>
</svg>
