<svg width="24" height="24" viewBox="0 0 24 24" fill="none" xmlns="http://www.w3.org/2000/svg">
<path fill-rule="evenodd" clip-rule="evenodd" d="M13.5 3C14.879 3 16 4.122 16 5.5V7H19C20.654 7 22 8.346 22 10V10.9814C20.6182 9.12796 18.4536 7.89248 15.9951 7.76758L15.583 7.75684C14.0079 7.75684 12.5401 8.21389 11.3018 9H5C4.448 9 4 9.449 4 10V18C4 18.551 4.448 19 5 19H8.26953C8.59434 19.7311 9.02502 20.404 9.54297 21H5C3.346 21 2 19.654 2 18V10C2 8.346 3.346 7 5 7H8V5.5C8 4.122 9.121 3 10.5 3H13.5ZM10.5 5C10.225 5 10 5.224 10 5.5V7H14V5.5C14 5.224 13.775 5 13.5 5H10.5Z" fill="#8F9BB2"/>
<path d="M14.6836 14.1689C14.6836 14.3641 14.8419 14.5215 15.0371 14.5215C16.5475 14.5216 17.8165 15.5418 18.1465 16.9072C17.429 15.9808 16.2945 15.4044 15.0371 15.4043C14.842 15.4043 14.6838 15.5618 14.6836 15.7568V16.4502L12.9814 14.9639L14.6836 13.4902V14.1689Z" fill="#8F9BB2"/>
<path fill-rule="evenodd" clip-rule="evenodd" d="M15.583 9.75684C18.8965 9.7571 21.583 12.4433 21.583 15.7568C21.583 19.0704 18.8965 21.7566 15.583 21.7568C12.2693 21.7568 9.58203 19.0705 9.58203 15.7568C9.58203 12.4431 12.2693 9.75684 15.583 9.75684ZM15.0039 12.8223C14.746 12.7049 14.4446 12.7473 14.2354 12.9297L12.4482 14.4912C12.3095 14.6126 12.2295 14.7847 12.2295 14.9629C12.2295 15.1411 12.3096 15.3132 12.4482 15.4346L14.2354 16.9961C14.4446 17.1786 14.7459 17.2201 15.0039 17.1025C15.2417 16.9949 15.3896 16.7735 15.3896 16.5244V16.1289C16.7215 16.2697 17.8264 17.1996 18.1406 18.4873C18.1791 18.6454 18.3217 18.7568 18.4844 18.7568C18.6473 18.7567 18.7891 18.6456 18.8271 18.4873C18.8991 18.1908 18.9355 17.8952 18.9355 17.6094C18.9353 15.6332 17.3744 14.005 15.3896 13.8311V13.4014C15.3896 13.1522 15.2418 12.9299 15.0039 12.8223Z" fill="#8F9BB2"/>
</svg>
