<svg width="24" height="24" viewBox="0 0 24 24" fill="none" xmlns="http://www.w3.org/2000/svg">
<path d="M8.1582 16.3271C8.18128 16.8901 8.26222 17.4375 8.39746 17.9629L8.44531 18.1504H6.16699C5.6261 18.1504 5.18283 17.7081 5.18262 17.167C5.18262 16.6258 5.62582 16.1826 6.16699 16.1826H8.15234L8.1582 16.3271Z" fill="#8F9BB2"/>
<path d="M16.167 2.84961C17.628 2.8498 18.8174 4.03891 18.8174 5.5V8.66699L18.6172 8.59668C18.0955 8.41234 17.5478 8.28251 16.9814 8.21191L16.8496 8.19629V5.5C16.8496 5.17084 16.6158 4.89505 16.3047 4.83105L16.167 4.81738H4.5C4.12294 4.81738 3.81738 5.12358 3.81738 5.5V12.167L3.83105 12.3047C3.89501 12.6154 4.17034 12.8496 4.5 12.8496H8.80664L8.72266 13.0566C8.51216 13.5765 8.35511 14.1233 8.25977 14.6914L8.23926 14.8174H4.5C3.03891 14.8174 1.8498 13.628 1.84961 12.167V5.5C1.84961 4.03882 3.03882 2.84961 4.5 2.84961H16.167Z" fill="#8F9BB2"/>
<path d="M16.001 15.4717C16.292 15.4719 16.5283 15.709 16.5283 16C16.5283 16.291 16.292 16.5281 16.001 16.5283C15.7098 16.5283 15.4727 16.2911 15.4727 16C15.4727 15.7089 15.7098 15.4717 16.001 15.4717Z" fill="#8F9BB2"/>
<path fill-rule="evenodd" clip-rule="evenodd" d="M16.2207 13.1836V13.4541C16.2209 13.7831 16.4239 14.0783 16.7451 14.2109C17.0588 14.3419 17.4115 14.276 17.6445 14.043L17.8369 13.8516L18.1494 14.1641L17.959 14.3535C17.7245 14.5869 17.6574 14.9408 17.793 15.2646C17.9218 15.5775 18.2178 15.7801 18.5469 15.7803H18.8164V16.2197H18.5469C18.2179 16.2199 17.9221 16.4228 17.7939 16.7334L17.79 16.7432C17.6588 17.0568 17.7238 17.4115 17.957 17.6445L18.1494 17.8359L17.8369 18.1484L17.6475 17.958C17.4144 17.7236 17.0602 17.6572 16.7363 17.792C16.4235 17.9211 16.2209 18.2169 16.2207 18.5459V18.8164H15.7803V18.5459C15.7801 18.2169 15.5771 17.9217 15.2559 17.7891C14.9422 17.6582 14.5894 17.724 14.3564 17.957L14.165 18.1484L13.8525 17.8359L14.043 17.6465C14.2773 17.4131 14.3435 17.0592 14.208 16.7354C14.0791 16.4225 13.7832 16.2197 13.4541 16.2197H13.1846V15.7803H13.4541C13.7833 15.7803 14.0795 15.5773 14.2119 15.2559C14.3432 14.9422 14.277 14.5885 14.0439 14.3555L13.8516 14.1641L14.165 13.8516L14.3545 14.042C14.5878 14.2766 14.9413 14.3433 15.2646 14.208C15.5775 14.0789 15.7801 13.7831 15.7803 13.4541V13.1836H16.2207ZM16.001 14.7676C15.3215 14.7676 14.7686 15.3206 14.7686 16C14.7686 16.6794 15.3215 17.2324 16.001 17.2324C16.6803 17.2323 17.2324 16.6793 17.2324 16C17.2324 15.3207 16.6803 14.7677 16.001 14.7676Z" fill="#8F9BB2"/>
<path fill-rule="evenodd" clip-rule="evenodd" d="M16.001 10C19.3145 10.0003 22.001 12.6865 22.001 16C22.001 19.3135 19.3145 21.9997 16.001 22C12.6873 22 10 19.3137 10 16C10 12.6863 12.6873 10 16.001 10ZM15.6689 12.4795C15.3422 12.4795 15.0762 12.7456 15.0762 13.0723V13.4541C15.0759 13.5056 15.0347 13.5411 14.9834 13.5625C14.9445 13.5788 14.8903 13.5827 14.8535 13.5459L14.584 13.2744C14.5002 13.1902 14.3951 13.1348 14.2812 13.1123L14.165 13.1006C14.007 13.1006 13.858 13.1625 13.7461 13.2744L13.2744 13.7461C13.0444 13.9763 13.0442 14.3518 13.2744 14.583L13.5459 14.8535C13.5825 14.8901 13.5787 14.9454 13.5576 14.9961C13.5417 15.0347 13.5057 15.0762 13.4541 15.0762H13.0703C12.7447 15.0762 12.4805 15.3404 12.4805 15.666V16.332C12.4805 16.6586 12.7457 16.9237 13.0723 16.9238H13.4541C13.5061 16.9238 13.5414 16.965 13.5625 17.0166C13.579 17.0557 13.5829 17.1105 13.5459 17.1475L13.2754 17.417C13.1633 17.5288 13.102 17.6771 13.1016 17.835C13.1016 17.9933 13.1626 18.142 13.2744 18.2539L13.7461 18.7256C13.9767 18.9565 14.3521 18.9558 14.583 18.7256L14.8545 18.4541C14.8917 18.4182 14.9456 18.4227 14.9961 18.4434C15.0347 18.4592 15.0759 18.4944 15.0762 18.5459V18.9307C15.0763 19.2557 15.341 19.5203 15.666 19.5205H16.332C16.6587 19.5205 16.9248 19.2544 16.9248 18.9277V18.5459C16.925 18.4944 16.9663 18.4589 17.0176 18.4375C17.0563 18.4214 17.1115 18.4172 17.1484 18.4541L17.417 18.7256C17.5286 18.8379 17.6779 18.8994 17.8359 18.8994C17.994 18.8994 18.1429 18.8375 18.2549 18.7256L18.7266 18.2539C18.9568 18.0237 18.9568 17.6483 18.7266 17.417L18.4551 17.1465C18.4185 17.1099 18.4233 17.0547 18.4395 17.0156C18.4404 17.0135 18.4443 17.0039 18.4443 17.0039C18.4603 16.9654 18.4955 16.924 18.5469 16.9238H18.9307C19.2563 16.9238 19.5205 16.6596 19.5205 16.334V15.668C19.5205 15.3413 19.2554 15.0762 18.9287 15.0762H18.5469C18.495 15.076 18.4596 15.0349 18.4385 14.9834C18.4219 14.9443 18.4182 14.8895 18.4551 14.8525L18.7256 14.583C18.8378 14.4715 18.9003 14.3227 18.9004 14.165C18.9007 14.0067 18.8394 13.8577 18.7275 13.7461L18.2549 13.2744C18.0243 13.0435 17.6489 13.0442 17.418 13.2744L17.1475 13.5459C17.1105 13.5829 17.0559 13.5778 17.0049 13.5566C16.9663 13.5408 16.925 13.5056 16.9248 13.4541V13.0693C16.9247 12.7442 16.6602 12.4795 16.335 12.4795H15.6689Z" fill="#8F9BB2"/>
</svg>
