<svg width="20" height="20" viewBox="0 0 20 20" fill="none" xmlns="http://www.w3.org/2000/svg">
<path d="M7.55861 10.0008C7.25221 10.5304 7.01635 11.1058 6.86444 11.7147C4.86748 12.0216 3.33335 13.7518 3.33335 15.8333C3.33335 16.2933 2.96085 16.6667 2.50002 16.6667C2.03919 16.6667 1.66669 16.2933 1.66669 15.8333C1.66669 12.6167 4.28419 9.99999 7.50002 9.99999C7.51958 9.99999 7.5391 10.0006 7.55861 10.0008Z" fill="#8F9BB2"/>
<path fill-rule="evenodd" clip-rule="evenodd" d="M7.50002 1.66666C9.33835 1.66666 10.8334 3.16166 10.8334 4.99999C10.8334 6.83832 9.33835 8.33332 7.50002 8.33332C5.66169 8.33332 4.16669 6.83832 4.16669 4.99999C4.16669 3.16166 5.66169 1.66666 7.50002 1.66666ZM7.50002 3.33332C6.58085 3.33332 5.83335 4.08082 5.83335 4.99999C5.83335 5.91916 6.58085 6.66666 7.50002 6.66666C8.41919 6.66666 9.16669 5.91916 9.16669 4.99999C9.16669 4.08082 8.41919 3.33332 7.50002 3.33332Z" fill="#8F9BB2"/>
<path d="M13.3334 12.8931C13.5759 12.8932 13.7728 13.0908 13.7728 13.3333C13.7728 13.5759 13.5759 13.7734 13.3334 13.7736C13.0907 13.7736 12.8931 13.5759 12.8931 13.3333C12.8931 13.0907 13.0907 12.8931 13.3334 12.8931Z" fill="#8F9BB2"/>
<path fill-rule="evenodd" clip-rule="evenodd" d="M13.5165 10.9863V11.2117C13.5166 11.4859 13.6858 11.7319 13.9535 11.8424C14.2149 11.9516 14.5088 11.8967 14.703 11.7025L14.8633 11.543L15.1237 11.8034L14.965 11.9613C14.7696 12.1558 14.7137 12.4506 14.8267 12.7205C14.934 12.9812 15.1807 13.1501 15.4549 13.1502H15.6795V13.5164H15.4549C15.1808 13.5165 14.9343 13.6857 14.8275 13.9445L14.8242 13.9526C14.7148 14.214 14.769 14.5096 14.9634 14.7038L15.1237 14.8633L14.8633 15.1237L14.7054 14.965C14.5112 14.7696 14.216 14.7144 13.9461 14.8266C13.6855 14.9343 13.5166 15.1808 13.5165 15.4549V15.6803H13.1494V15.4549C13.1493 15.1808 12.9802 14.9348 12.7124 14.8242C12.4511 14.7152 12.1571 14.77 11.9629 14.9642L11.8034 15.1237L11.543 14.8633L11.7017 14.7054C11.897 14.5109 11.9521 14.216 11.8392 13.9461C11.7318 13.6854 11.4852 13.5164 11.211 13.5164H10.9863V13.1502H11.211C11.4853 13.1502 11.7322 12.981 11.8425 12.7132C11.9519 12.4518 11.8967 12.1571 11.7025 11.9629L11.5422 11.8034L11.8034 11.543L11.9613 11.7016C12.1557 11.8972 12.4503 11.9527 12.7197 11.84C12.9804 11.7324 13.1493 11.4859 13.1494 11.2117V10.9863H13.5165ZM13.3334 12.3063C12.7671 12.3063 12.3063 12.7671 12.3063 13.3333C12.3063 13.8995 12.7671 14.3603 13.3334 14.3603C13.8994 14.3602 14.3596 13.8994 14.3596 13.3333C14.3596 12.7672 13.8994 12.3064 13.3334 12.3063Z" fill="#8F9BB2"/>
<path fill-rule="evenodd" clip-rule="evenodd" d="M13.3334 8.33332C16.0946 8.33354 18.3334 10.572 18.3334 13.3333C18.3334 16.0946 16.0946 18.3331 13.3334 18.3333C10.5719 18.3333 8.33254 16.0947 8.33254 13.3333C8.33254 10.5719 10.5719 8.33332 13.3334 8.33332ZM13.0567 10.3996C12.7844 10.3996 12.5627 10.6213 12.5627 10.8935V11.2117C12.5625 11.2547 12.5281 11.2842 12.4854 11.3021C12.4529 11.3157 12.4078 11.3189 12.3771 11.2882L12.1525 11.062C12.0827 10.9918 11.9952 10.9457 11.9002 10.9269L11.8034 10.9171C11.6717 10.9171 11.5476 10.9687 11.4543 11.062L11.0612 11.4551C10.8695 11.6469 10.8694 11.9598 11.0612 12.1525L11.2875 12.3779C11.318 12.4084 11.3148 12.4545 11.2972 12.4967C11.284 12.5289 11.254 12.5635 11.211 12.5635H10.8911C10.6198 12.5635 10.3996 12.7837 10.3996 13.055V13.61C10.3996 13.8822 10.6206 14.1031 10.8928 14.1032H11.211C11.2543 14.1032 11.2837 14.1375 11.3013 14.1805C11.3151 14.2131 11.3183 14.2587 11.2875 14.2895L11.062 14.5141C10.9687 14.6074 10.9175 14.7309 10.9172 14.8625C10.9172 14.9944 10.968 15.1183 11.0612 15.2116L11.4543 15.6046C11.6464 15.7971 11.9593 15.7965 12.1517 15.6046L12.3779 15.3784C12.409 15.3485 12.4539 15.3523 12.496 15.3695C12.5281 15.3826 12.5625 15.412 12.5627 15.4549V15.7755C12.5628 16.0464 12.7834 16.2669 13.0542 16.2671H13.6092C13.8815 16.2671 14.1032 16.0453 14.1032 15.7731V15.4549C14.1034 15.412 14.1378 15.3824 14.1805 15.3646C14.2128 15.3511 14.2588 15.3477 14.2896 15.3784L14.5134 15.6046C14.6063 15.6982 14.7308 15.7495 14.8625 15.7495C14.9942 15.7495 15.1183 15.6979 15.2116 15.6046L15.6047 15.2116C15.7965 15.0197 15.7965 14.7069 15.6047 14.5141L15.3784 14.2887C15.3479 14.2582 15.3519 14.2122 15.3654 14.1797C15.3662 14.1779 15.3695 14.1699 15.3695 14.1699C15.3827 14.1378 15.4121 14.1033 15.4549 14.1032H15.7748C16.0461 14.1032 16.2663 13.883 16.2663 13.6116V13.0566C16.2663 12.7844 16.0454 12.5635 15.7731 12.5635H15.4549C15.4117 12.5633 15.3822 12.5291 15.3646 12.4862C15.3508 12.4536 15.3477 12.4079 15.3784 12.3771L15.6039 12.1525C15.6974 12.0595 15.7495 11.9355 15.7495 11.8042C15.7498 11.6722 15.6987 11.548 15.6055 11.4551L15.2116 11.062C15.0195 10.8696 14.7066 10.8701 14.5142 11.062L14.2888 11.2882C14.258 11.319 14.2125 11.3148 14.1699 11.2972C14.1378 11.284 14.1034 11.2546 14.1032 11.2117V10.8911C14.1031 10.6201 13.8827 10.3996 13.6117 10.3996H13.0567Z" fill="#8F9BB2"/>
</svg>
