<svg width="33" height="32" viewBox="0 0 33 32" fill="none" xmlns="http://www.w3.org/2000/svg">
<path d="M16.3091 2C24.0411 2 30.3091 8.26801 30.3091 16C30.3091 23.732 24.0411 30 16.3091 30C8.5771 30 2.30908 23.732 2.30908 16C2.30908 8.26801 8.5771 2 16.3091 2Z" fill="#0072C9"/>
<path d="M9.60908 24C8.89111 24 8.30908 23.418 8.30908 22.7V20.636C8.30908 19.918 8.89111 19.336 9.60908 19.336H11.6731C12.3911 19.336 12.9731 19.918 12.9731 20.636V22.7C12.9731 23.418 12.3911 24 11.6731 24H9.60908ZM15.2771 24C14.5591 24 13.9771 23.418 13.9771 22.7V20.636C13.9771 19.918 14.5591 19.336 15.2771 19.336H17.3411C18.0591 19.336 18.6411 19.918 18.6411 20.636V22.7C18.6411 23.418 18.0591 24 17.3411 24H15.2771ZM20.9451 24C20.2271 24 19.6451 23.418 19.6451 22.7V20.636C19.6451 19.918 20.2271 19.336 20.9451 19.336H23.0091C23.7271 19.336 24.3091 19.918 24.3091 20.636V22.7C24.3091 23.418 23.7271 24 23.0091 24H20.9451ZM9.60908 18.332C8.89111 18.332 8.30908 17.75 8.30908 17.032V14.968C8.30908 14.25 8.89111 13.668 9.60908 13.668H11.6731C12.3911 13.668 12.9731 14.25 12.9731 14.968V17.032C12.9731 17.75 12.3911 18.332 11.6731 18.332H9.60908ZM15.2771 18.332C14.5591 18.332 13.9771 17.75 13.9771 17.032V14.968C13.9771 14.25 14.5591 13.668 15.2771 13.668H17.3411C18.0591 13.668 18.6411 14.25 18.6411 14.968V17.032C18.6411 17.75 18.0591 18.332 17.3411 18.332H15.2771ZM20.9451 18.332C20.2271 18.332 19.6451 17.75 19.6451 17.032V14.968C19.6451 14.25 20.2271 13.668 20.9451 13.668H23.0091C23.7271 13.668 24.3091 14.25 24.3091 14.968V17.032C24.3091 17.75 23.7271 18.332 23.0091 18.332H20.9451ZM9.60908 12.664C8.89111 12.664 8.30908 12.082 8.30908 11.364V9.3C8.30908 8.58203 8.89111 8 9.60908 8H11.6731C12.3911 8 12.9731 8.58203 12.9731 9.3V11.364C12.9731 12.082 12.3911 12.664 11.6731 12.664H9.60908ZM15.2771 12.664C14.5591 12.664 13.9771 12.082 13.9771 11.364V9.3C13.9771 8.58203 14.5591 8 15.2771 8H17.3411C18.0591 8 18.6411 8.58203 18.6411 9.3V11.364C18.6411 12.082 18.0591 12.664 17.3411 12.664H15.2771ZM20.9451 12.664C20.2271 12.664 19.6451 12.082 19.6451 11.364V9.3C19.6451 8.58203 20.2271 8 20.9451 8H23.0091C23.7271 8 24.3091 8.58203 24.3091 9.3V11.364C24.3091 12.082 23.7271 12.664 23.0091 12.664H20.9451Z" fill="#9CEBFF"/>
<path d="M30.3091 16C30.3091 8.26801 24.0411 2 16.3091 2C8.5771 2 2.30908 8.26801 2.30908 16C2.30908 23.732 8.5771 30 16.3091 30V31C8.02481 31 1.30908 24.2843 1.30908 16C1.30908 7.71573 8.02481 1 16.3091 1C24.5934 1 31.3091 7.71573 31.3091 16C31.3091 24.2843 24.5934 31 16.3091 31V30C24.0411 30 30.3091 23.732 30.3091 16Z" fill="#9CEBFF"/>
</svg>
