<svg width="32" height="32" viewBox="0 0 32 32" fill="none" xmlns="http://www.w3.org/2000/svg">
<path d="M16 2C23.732 2 30 8.26801 30 16C30 23.732 23.732 30 16 30C8.26801 30 2 23.732 2 16C2 8.26801 8.26801 2 16 2Z" fill="#0072C9"/>
<path d="M23.6289 7.71387C24.0057 7.71395 24.3283 7.84473 24.5967 8.10547C24.8653 8.36658 25 8.68118 25 9.04785V15.7139C25 16.0805 24.8653 16.3951 24.5967 16.6562C24.3283 16.917 24.0057 17.0478 23.6289 17.0479H19.5146V18.3809H20.8857V19.7139H15.4004V18.3809H16.7715V17.0479H15.6367C15.6876 16.8027 15.7139 16.548 15.7139 16.2852C15.7137 15.3089 15.3604 14.4464 14.6709 13.7568C13.9813 13.0674 13.1189 12.7139 12.1426 12.7139C11.8457 12.7139 11.5593 12.7467 11.2852 12.8115V9.04785C11.2852 8.68118 11.4199 8.36658 11.6885 8.10547C11.957 7.84449 12.2802 7.71387 12.6572 7.71387H23.6289Z" fill="#9CEBFF"/>
<path d="M12.1429 18.8572C11.4286 18.8572 10.8214 18.6072 10.3214 18.1072C9.82144 17.6072 9.57144 17 9.57144 16.2857C9.57144 15.5714 9.82144 14.9643 10.3214 14.4643C10.8214 13.9643 11.4286 13.7143 12.1429 13.7143C12.8572 13.7143 13.4643 13.9643 13.9643 14.4643C14.4643 14.9643 14.7143 15.5714 14.7143 16.2857C14.7143 17 14.4643 17.6072 13.9643 18.1072C13.4643 18.6072 12.8572 18.8572 12.1429 18.8572ZM7 24V22.3715C7 22.0715 7.07143 21.7857 7.21429 21.5143C7.35714 21.2429 7.55714 21.0286 7.81429 20.8715C8.45715 20.4857 9.13929 20.1965 9.86072 20.0036C10.5822 19.8107 11.3429 19.7143 12.1429 19.7143C12.9429 19.7143 13.7036 19.8107 14.425 20.0036C15.1465 20.1965 15.8286 20.4857 16.4715 20.8715C16.7286 21.0286 16.9286 21.2429 17.0715 21.5143C17.2143 21.7857 17.2857 22.0715 17.2857 22.3715V24H7Z" fill="#9CEBFF"/>
<path d="M30 16C30 8.26801 23.732 2 16 2C8.26801 2 2 8.26801 2 16C2 23.732 8.26801 30 16 30V31C7.71573 31 1 24.2843 1 16C1 7.71573 7.71573 1 16 1C24.2843 1 31 7.71573 31 16C31 24.2843 24.2843 31 16 31V30C23.732 30 30 23.732 30 16Z" fill="#9CEBFF"/>
</svg>
