<svg width="32" height="32" viewBox="0 0 32 32" fill="none" xmlns="http://www.w3.org/2000/svg">
<path d="M16 2C23.732 2 30 8.26801 30 16C30 23.732 23.732 30 16 30C8.26801 30 2 23.732 2 16C2 8.26801 8.26801 2 16 2Z" fill="#0072C9"/>
<path d="M30 16C30 8.26801 23.732 2 16 2C8.26801 2 2 8.26801 2 16C2 23.732 8.26801 30 16 30V31C7.71573 31 1 24.2843 1 16C1 7.71573 7.71573 1 16 1C24.2843 1 31 7.71573 31 16C31 24.2843 24.2843 31 16 31V30C23.732 30 30 23.732 30 16Z" fill="#9CEBFF"/>
<path d="M9.3 24C8.58203 24 8 23.418 8 22.7V20.636C8 19.918 8.58203 19.336 9.3 19.336H11.364C12.082 19.336 12.664 19.918 12.664 20.636V22.7C12.664 23.418 12.082 24 11.364 24H9.3ZM14.968 24C14.25 24 13.668 23.418 13.668 22.7V20.636C13.668 19.918 14.25 19.336 14.968 19.336H17.032C17.75 19.336 18.332 19.918 18.332 20.636V22.7C18.332 23.418 17.75 24 17.032 24H14.968ZM20.636 24C19.918 24 19.336 23.418 19.336 22.7V20.636C19.336 19.918 19.918 19.336 20.636 19.336H22.7C23.418 19.336 24 19.918 24 20.636V22.7C24 23.418 23.418 24 22.7 24H20.636ZM9.3 18.332C8.58203 18.332 8 17.75 8 17.032V14.968C8 14.25 8.58203 13.668 9.3 13.668H11.364C12.082 13.668 12.664 14.25 12.664 14.968V17.032C12.664 17.75 12.082 18.332 11.364 18.332H9.3ZM14.968 18.332C14.25 18.332 13.668 17.75 13.668 17.032V14.968C13.668 14.25 14.25 13.668 14.968 13.668H17.032C17.75 13.668 18.332 14.25 18.332 14.968V17.032C18.332 17.75 17.75 18.332 17.032 18.332H14.968ZM20.636 18.332C19.918 18.332 19.336 17.75 19.336 17.032V14.968C19.336 14.25 19.918 13.668 20.636 13.668H22.7C23.418 13.668 24 14.25 24 14.968V17.032C24 17.75 23.418 18.332 22.7 18.332H20.636ZM9.3 12.664C8.58203 12.664 8 12.082 8 11.364V9.3C8 8.58203 8.58203 8 9.3 8H11.364C12.082 8 12.664 8.58203 12.664 9.3V11.364C12.664 12.082 12.082 12.664 11.364 12.664H9.3ZM14.968 12.664C14.25 12.664 13.668 12.082 13.668 11.364V9.3C13.668 8.58203 14.25 8 14.968 8H17.032C17.75 8 18.332 8.58203 18.332 9.3V11.364C18.332 12.082 17.75 12.664 17.032 12.664H14.968ZM20.636 12.664C19.918 12.664 19.336 12.082 19.336 11.364V9.3C19.336 8.58203 19.918 8 20.636 8H22.7C23.418 8 24 8.58203 24 9.3V11.364C24 12.082 23.418 12.664 22.7 12.664H20.636Z" fill="#9CEBFF"/>
</svg>
