<svg width="31" height="30" viewBox="0 0 31 30" fill="none" xmlns="http://www.w3.org/2000/svg">
<path d="M15.6182 1C23.3502 1 29.6182 7.26801 29.6182 15C29.6182 22.732 23.3502 29 15.6182 29C7.88618 29 1.61816 22.732 1.61816 15C1.61816 7.26801 7.88618 1 15.6182 1Z" fill="#0072C9"/>
<path d="M16.216 12.0635H22.3936V7.32688C22.3936 6.93058 22.2525 6.59134 21.9703 6.30916C21.6881 6.02699 21.3489 5.8859 20.9526 5.8859H16.216V12.0635ZM15.0203 13.2592H8.84265V17.9958C8.84265 18.3921 8.98374 18.7314 9.26592 19.0136C9.5481 19.2957 9.88734 19.4368 10.2836 19.4368H15.0203V13.2592ZM15.0203 12.0635V5.8859H10.2836C9.88734 5.8859 9.5481 6.02699 9.26592 6.30916C8.98374 6.59134 8.84265 6.93058 8.84265 7.32688V12.0635H15.0203Z" fill="#9CEBFF"/>
<path d="M19.9355 16.6356L16.5664 20.0047C16.0977 19.536 16.0977 18.7761 16.5664 18.3074L18.2388 16.6349L16.5664 14.9624C16.098 14.4941 16.098 13.7348 16.5664 13.2665L19.9355 16.6356Z" fill="#9CEBFF"/>
<path d="M17.332 20.7395L20.706 17.3655C21.1747 17.8343 21.1747 18.5942 20.706 19.0629L19.0287 20.7402L20.7067 22.4182C21.175 22.8865 21.175 23.6458 20.7067 24.1141L17.332 20.7395Z" fill="#9CEBFF"/>
<path d="M29.6182 15C29.6182 7.26801 23.3502 1 15.6182 1C7.88618 1 1.61816 7.26801 1.61816 15C1.61816 22.732 7.88618 29 15.6182 29V30C7.33389 30 0.618164 23.2843 0.618164 15C0.618164 6.71573 7.33389 0 15.6182 0C23.9024 0 30.6182 6.71573 30.6182 15C30.6182 23.2843 23.9024 30 15.6182 30V29C23.3502 29 29.6182 22.732 29.6182 15Z" fill="#9CEBFF"/>
</svg>
