<svg width="31" height="30" viewBox="0 0 31 30" fill="none" xmlns="http://www.w3.org/2000/svg">
<path d="M15.7732 1C23.5052 1 29.7732 7.26801 29.7732 15C29.7732 22.732 23.5052 29 15.7732 29C8.04121 29 1.77319 22.732 1.77319 15C1.77319 7.26801 8.04121 1 15.7732 1Z" fill="#0072C9"/>
<path d="M15.773 12.7064C16.3527 12.7064 16.8454 12.5035 17.2511 12.0978C17.6568 11.6921 17.8597 11.1995 17.8597 10.62C17.8597 10.0404 17.6568 9.54783 17.2511 9.14211C16.8454 8.7364 16.3527 8.53354 15.773 8.53354C15.1935 8.53354 14.7009 8.7364 14.2952 9.14211C13.8895 9.54783 13.6866 10.0404 13.6866 10.62C13.6866 11.1995 13.8895 11.6921 14.2952 12.0978C14.7009 12.5035 15.1935 12.7064 15.773 12.7064ZM15.7997 24L12.9166 21.1601L14.374 19.5622L12.8918 17.9145L14.2663 16.3826V15.0048C13.3655 14.6792 12.6214 14.1253 12.034 13.3432C11.4467 12.561 11.1531 11.6533 11.1531 10.62C11.1531 9.32833 11.6002 8.23539 12.4944 7.34115C13.3887 6.44705 14.4815 6 15.773 6C17.0647 6 18.1576 6.44705 19.0519 7.34115C19.9461 8.23539 20.3932 9.32833 20.3932 10.62C20.3932 11.6886 20.0907 12.6074 19.4856 13.3763C18.8807 14.1451 18.1455 14.688 17.2799 15.0048V22.4931L15.7997 24Z" fill="#9CEBFF"/>
<path d="M29.7732 15C29.7732 7.26801 23.5052 1 15.7732 1C8.04121 1 1.77319 7.26801 1.77319 15C1.77319 22.732 8.04121 29 15.7732 29V30C7.48892 30 0.773193 23.2843 0.773193 15C0.773193 6.71573 7.48892 0 15.7732 0C24.0575 0 30.7732 6.71573 30.7732 15C30.7732 23.2843 24.0575 30 15.7732 30V29C23.5052 29 29.7732 22.732 29.7732 15Z" fill="#9CEBFF"/>
</svg>
