<svg width="33" height="32" viewBox="0 0 33 32" fill="none" xmlns="http://www.w3.org/2000/svg">
<path d="M16.4636 2C24.1956 2 30.4636 8.26801 30.4636 16C30.4636 23.732 24.1956 30 16.4636 30C8.73164 30 2.46362 23.732 2.46362 16C2.46362 8.26801 8.73164 2 16.4636 2Z" fill="#0072C9"/>
<path d="M15.8369 17.8224H22.0146V22.559C22.0146 22.9553 21.8735 23.2946 21.5913 23.5768C21.3091 23.8589 20.9699 24 20.5736 24H15.8369V17.8224ZM14.6413 16.6267H8.46362V11.8901C8.46362 11.4938 8.60471 11.1545 8.88689 10.8724C9.16907 10.5902 9.50831 10.4491 9.90461 10.4491H14.6413V16.6267ZM14.6413 17.8224V24H9.90461C9.50831 24 9.16907 23.8589 8.88689 23.5768C8.60471 23.2946 8.46362 22.9553 8.46362 22.559V17.8224H14.6413Z" fill="#9CEBFF"/>
<path d="M22.0146 17.8224H15.8369V24H20.5736C20.9699 24 21.3091 23.8589 21.5913 23.5768C21.8735 23.2946 22.0146 22.9553 22.0146 22.559V17.8224Z" fill="#9CEBFF"/>
<path d="M22.4512 8.65039C22.8308 8.65039 23.14 8.77768 23.4131 9.05078C23.6861 9.32385 23.8135 9.63309 23.8135 10.0127V15.9766H16.4873V8.65039H22.4512Z" stroke="#9CEBFF" stroke-width="1.3"/>
<path d="M30.4636 16C30.4636 8.26801 24.1956 2 16.4636 2C8.73164 2 2.46362 8.26801 2.46362 16C2.46362 23.732 8.73164 30 16.4636 30V31C8.17935 31 1.46362 24.2843 1.46362 16C1.46362 7.71573 8.17935 1 16.4636 1C24.7479 1 31.4636 7.71573 31.4636 16C31.4636 24.2843 24.7479 31 16.4636 31V30C24.1956 30 30.4636 23.732 30.4636 16Z" fill="#9CEBFF"/>
</svg>
